<?xml version="1.0" standalone="no"?>
<!DOCTYPE svg PUBLIC "-//W3C//DTD SVG 20010904//EN"
 "http://www.w3.org/TR/2001/REC-SVG-20010904/DTD/svg10.dtd">
<svg version="1.0" xmlns="http://www.w3.org/2000/svg"
 width="552.000000pt" height="552.000000pt" viewBox="0 0 552.000000 552.000000"
 preserveAspectRatio="xMidYMid meet">
<metadata>
Created by potrace 1.14, written by Peter Selinger 2001-2017
</metadata>
<g transform="translate(0.000000,552.000000) scale(0.100000,-0.100000)"
fill="#000000" stroke="none">
<path d="M2737 5418 c-8 -13 -37 -63 -64 -112 -27 -50 -56 -93 -64 -97 -153
-72 -152 -72 -167 -52 -13 17 -14 16 -8 -9 5 -23 3 -26 -11 -21 -12 5 -14 3
-8 -8 5 -8 -1 -6 -13 5 -21 18 -22 18 -104 -65 -91 -92 -143 -178 -174 -287
-10 -37 -24 -66 -33 -69 -9 -4 -24 -13 -35 -22 -17 -15 -19 -14 -30 4 -27 49
-135 143 -199 175 -60 30 -78 34 -150 34 -103 1 -219 -13 -212 -25 3 -5 -3
-19 -14 -31 -12 -12 -21 -31 -22 -42 0 -18 -3 -17 -13 7 -19 43 -26 22 -26
-77 1 -247 107 -430 283 -486 55 -17 40 -34 -36 -40 -108 -8 -155 -62 -167
-192 l-6 -69 41 -35 c37 -32 37 -33 5 -11 -42 28 -151 77 -174 77 -18 0 -20
-13 -6 -41 9 -15 7 -19 -5 -19 -9 0 -20 10 -25 23 -8 21 -9 21 -9 -5 -1 -41
34 -126 70 -170 28 -36 34 -79 8 -63 -20 13 -67 -17 -84 -51 -20 -43 -12 -87
20 -112 18 -14 21 -22 12 -31 -6 -6 -19 -11 -28 -11 -10 0 -21 -5 -24 -10 -4
-6 -11 -8 -16 -4 -5 3 -8 0 -7 -7 2 -6 -3 -14 -11 -17 -10 -3 -12 0 -8 14 5
12 -2 9 -20 -11 -35 -38 -89 -84 -79 -67 18 31 -16 7 -57 -42 -43 -49 -50 -54
-101 -60 -116 -13 -215 -43 -265 -81 -88 -64 -146 -145 -175 -244 -14 -47 -14
-56 -1 -74 22 -32 19 -83 -7 -106 l-21 -20 46 -43 c52 -49 70 -86 62 -132 -4
-19 -1 -38 7 -48 12 -17 19 -16 103 14 80 28 105 32 220 35 144 4 179 9 170
23 -3 6 -1 10 6 10 8 0 7 5 -2 16 -12 15 -11 16 7 10 12 -4 33 0 50 9 16 8 44
18 61 21 18 3 31 9 28 13 -7 13 12 66 23 64 6 -2 9 3 6 11 -3 9 -29 15 -75 18
-112 8 -147 49 -120 139 15 49 67 94 133 113 50 14 56 19 78 66 13 27 26 50
29 50 4 0 12 10 20 23 l14 22 -25 -23 c-22 -20 -26 -21 -38 -7 -18 22 17 57
99 98 60 29 74 32 161 32 90 -1 99 -2 167 -38 39 -21 89 -56 110 -78 21 -21
62 -51 91 -65 38 -19 59 -37 78 -69 17 -30 39 -51 70 -66 25 -12 54 -34 66
-49 12 -16 27 -26 34 -23 8 3 26 -3 42 -13 28 -18 98 -21 116 -4 4 5 -6 16
-23 25 -49 25 -38 51 19 47 78 -5 140 55 140 133 0 36 15 23 36 -31 14 -38 15
-50 5 -66 -11 -17 -10 -22 1 -29 19 -13 21 -12 65 31 62 59 78 135 48 221 -9
24 -24 53 -34 64 -10 11 -21 31 -24 44 -5 22 -4 23 31 18 20 -3 80 -15 132
-26 52 -12 110 -21 128 -21 l33 0 -30 54 c-17 29 -31 56 -31 58 0 8 143 1 164
-8 16 -6 18 -4 12 12 -4 10 -10 52 -13 92 l-6 73 24 -6 c17 -4 49 6 106 34 44
23 90 41 102 41 13 0 26 9 31 23 8 18 9 16 4 -11 -5 -31 -4 -33 13 -24 10 6
34 27 53 47 19 20 47 43 62 51 25 13 27 13 21 -3 -3 -10 10 0 29 22 35 39 36
40 57 21 26 -24 38 -62 50 -161 16 -129 50 -275 82 -348 28 -63 30 -74 25
-155 l-6 -87 14 77 c14 78 21 98 35 98 10 0 5 -148 -7 -185 -5 -17 -7 -45 -5
-62 4 -23 -1 -40 -16 -59 -24 -31 -28 -82 -6 -90 8 -3 24 1 37 10 12 9 31 16
42 16 14 0 17 3 9 11 -7 7 -6 23 4 52 20 57 34 73 45 53 11 -19 38 -21 39 -3
0 6 4 3 8 -8 12 -31 -3 -79 -43 -130 -52 -68 -49 -80 9 -42 19 12 44 41 56 65
24 46 44 58 28 16 -16 -45 -3 -38 17 8 14 33 18 70 19 158 l0 115 46 -1 c45
-2 121 -33 134 -55 4 -6 2 -31 -5 -55 -17 -58 -2 -111 45 -163 32 -35 35 -44
41 -126 6 -66 10 -84 18 -74 15 20 63 22 117 6 28 -9 52 -11 60 -6 23 15 33
10 50 -24 l16 -32 124 -6 c103 -5 139 -11 213 -37 l90 -31 23 25 c18 20 22 32
17 62 -4 32 0 43 33 83 l38 46 -1 104 c0 81 -5 116 -22 159 -48 122 -170 236
-277 259 -188 40 -185 39 -261 112 -66 63 -105 88 -89 57 4 -7 0 -5 -8 5 -9
10 -18 18 -21 18 -9 0 -57 18 -101 38 l-40 18 27 8 c72 19 68 149 -5 174 -16
6 -33 8 -38 5 -5 -3 -12 2 -15 10 -3 9 7 31 25 53 33 41 71 136 71 176 0 47
-48 61 -117 32 -56 -24 -60 -21 -65 48 -9 114 -61 179 -155 193 l-43 6 58 28
c82 39 175 128 212 203 23 49 32 85 41 169 12 118 11 122 -56 174 -20 15 -20
15 1 11 42 -9 49 11 8 22 -93 24 -140 31 -229 33 l-94 3 27 23 27 23 -25 -6
c-93 -24 -234 -123 -297 -207 -18 -26 -20 -34 -10 -46 11 -13 9 -14 -10 -1
-19 11 -27 11 -43 1 -26 -16 -30 -15 -30 4 0 8 5 12 10 9 18 -11 10 15 -11 36
-31 31 -84 19 -111 -27 -22 -37 -38 -41 -18 -4 6 12 9 24 7 27 -3 2 -8 -4 -11
-15 -7 -20 -36 -39 -36 -23 0 24 87 70 132 71 15 0 15 5 -2 65 -39 137 -161
305 -222 305 -17 0 -28 5 -28 14 0 8 -6 13 -12 13 -7 -1 -40 11 -73 27 -33 15
-76 34 -95 43 -19 8 -41 18 -49 22 -8 4 -42 56 -75 116 -34 60 -66 110 -73
112 -6 3 -18 -6 -26 -19z m38 -90 c4 -56 11 -113 15 -128 6 -20 4 -27 -6 -27
-8 0 -16 14 -18 31 -10 63 -14 226 -6 226 4 0 11 -46 15 -102z m-215 -228
c-11 -20 -31 -26 -44 -13 -3 4 4 13 16 20 33 18 40 16 28 -7z m450 -1 c8 -5
13 -9 10 -9 -39 -9 -47 -7 -58 11 -12 19 -11 20 10 14 13 -4 30 -11 38 -16z
m-636 -8 c3 -5 -1 -11 -9 -14 -9 -4 -12 -1 -8 9 6 16 10 17 17 5z m125 -27
c-14 -18 -24 -11 -15 11 3 9 11 13 16 10 8 -5 7 -11 -1 -21z m565 -6 c-3 -4 3
-8 13 -9 11 0 13 -3 5 -6 -13 -5 -52 23 -52 39 0 4 9 3 19 -4 11 -7 17 -16 15
-20z m-42 -68 c21 -14 38 -31 38 -38 0 -7 4 -11 9 -8 4 3 16 -3 26 -14 10 -11
15 -20 10 -20 -4 0 2 -8 13 -17 44 -38 90 -161 51 -137 -5 3 -7 10 -4 15 4 5
1 9 -5 9 -6 0 -10 6 -9 13 2 20 -13 57 -24 57 -6 0 -8 3 -4 6 3 4 -8 17 -26
29 -18 12 -31 26 -30 31 1 5 -25 25 -58 44 -32 19 -59 41 -59 48 0 6 -4 12
-10 12 -5 0 -10 -5 -10 -10 0 -14 -141 -149 -156 -150 -11 0 -164 126 -177
147 -4 7 -13 13 -19 13 -6 0 -8 -3 -5 -6 6 -7 -43 -39 -75 -50 -10 -4 -18 -10
-18 -15 0 -5 -16 -23 -35 -40 -20 -18 -32 -36 -28 -43 4 -6 -1 -4 -11 4 -17
13 -17 15 4 32 12 10 19 18 14 18 -14 0 61 62 111 91 54 31 80 36 91 17 4 -7
3 -8 -4 -4 -21 13 -12 -10 12 -34 16 -14 31 -20 42 -16 22 9 50 -14 32 -25
-10 -7 -5 -15 17 -34 38 -31 43 -31 85 5 33 28 34 29 11 30 -20 0 -21 2 -11
15 7 8 21 13 34 10 13 -4 32 3 51 19 23 20 26 25 13 26 -18 0 -23 11 -12 23 8
8 80 -22 126 -53z m-712 41 c0 -6 -5 -13 -12 -17 -7 -5 -8 -3 -3 6 6 10 4 12
-9 7 -10 -4 -15 -3 -11 3 8 13 35 13 35 1z m811 -18 c13 -15 12 -15 -11 -3
-34 17 -36 20 -18 20 9 0 22 -7 29 -17z m-503 -84 c1 -8 -10 -22 -25 -31 -35
-21 -83 -63 -83 -72 0 -7 -14 -25 -45 -58 -11 -11 -13 -17 -5 -13 12 7 13 6 3
-7 -7 -8 -10 -18 -6 -21 3 -4 -7 -7 -24 -7 -26 0 -30 3 -26 23 8 41 79 131
133 170 55 38 73 42 78 16z m325 10 c72 -38 156 -137 172 -202 6 -22 4 -26
-16 -24 -16 1 -27 14 -41 45 -19 42 -76 105 -133 148 -17 12 -25 25 -21 32 9
15 12 15 39 1z m-543 -79 c0 -5 -4 -10 -10 -10 -5 0 -10 5 -10 10 0 6 5 10 10
10 6 0 10 -4 10 -10z m268 -11 c2 -9 -13 -26 -35 -41 -21 -14 -47 -42 -58 -62
-20 -37 -24 -39 -63 -27 l-23 6 30 42 c36 50 108 105 130 101 9 -2 17 -10 19
-19z m260 -9 c40 -28 102 -103 102 -122 0 -4 -13 -8 -30 -8 -20 0 -33 7 -41
23 -16 31 -81 97 -90 91 -11 -7 -22 15 -15 31 8 22 29 18 74 -15z m-204 -80
c14 -22 31 -40 36 -40 5 0 21 18 35 39 31 46 49 45 101 -4 37 -35 43 -55 17
-55 -24 0 -105 -31 -125 -48 -14 -12 -24 -10 -80 16 -35 16 -75 32 -91 36 -24
6 -26 9 -17 26 10 18 77 70 91 70 3 0 18 -18 33 -40z m-364 -20 c0 -5 -2 -10
-4 -10 -3 0 -8 5 -11 10 -3 6 -1 10 4 10 6 0 11 -4 11 -10z m875 -10 c-10 -11
-20 -42 -23 -70 -4 -41 -2 -50 12 -50 11 0 16 -9 17 -27 0 -16 2 -40 4 -55 5
-40 -3 -34 -25 17 -11 25 -28 55 -40 67 -25 27 -25 35 0 48 21 11 28 40 9 40
-12 0 42 49 55 50 5 0 1 -9 -9 -20z m-35 6 c0 -3 -4 -8 -10 -11 -5 -3 -10 -1
-10 4 0 6 5 11 10 11 6 0 10 -2 10 -4z m-1124 -181 l-25 -27 6 39 c3 21 13 54
22 73 l15 35 4 -46 c2 -39 -1 -52 -22 -74z m619 105 c-3 -5 -11 -10 -16 -10
-6 0 -7 5 -4 10 3 6 11 10 16 10 6 0 7 -4 4 -10z m-45 -30 c0 -5 -7 -7 -15 -4
-8 4 -15 8 -15 10 0 2 7 4 15 4 8 0 15 -4 15 -10z m740 -25 c0 -8 -4 -15 -9
-15 -5 0 -14 7 -21 15 -10 13 -9 15 9 15 12 0 21 -6 21 -15z m-752 -15 c8 -4
-2 -6 -22 -6 -20 1 -41 7 -48 14 -10 10 -5 11 22 6 19 -4 41 -10 48 -14z m266
5 c-7 -17 -20 -20 -28 -6 -7 10 3 21 20 21 8 0 11 -6 8 -15z m543 -20 c14 -10
24 -12 28 -5 3 5 11 10 16 10 13 0 -30 -57 -56 -74 -21 -14 -22 -13 -21 35 1
27 3 49 6 49 3 0 15 -7 27 -15z m-427 -70 c-7 -9 -15 -13 -19 -10 -3 3 1 10 9
15 21 14 24 12 10 -5z m-1037 -57 c-30 -56 -47 -68 -57 -43 -9 23 10 53 47 75
18 11 33 20 35 20 2 0 -9 -23 -25 -52z m1582 22 c-3 -5 -1 -11 4 -14 5 -4 12
-2 16 4 3 5 11 10 17 10 6 0 5 -6 -3 -16 -15 -18 -109 -67 -116 -61 -2 3 4 8
15 11 22 7 34 55 20 80 -7 13 -4 14 22 5 16 -6 28 -15 25 -19z m-301 -57 c3
-7 -1 -13 -8 -13 -16 0 -66 38 -66 51 0 13 68 -22 74 -38z m123 41 c-3 -3 -12
-4 -19 -1 -8 3 -5 6 6 6 11 1 17 -2 13 -5z m221 -46 c-6 -18 -28 -21 -28 -4 0
9 7 16 16 16 9 0 14 -5 12 -12z m-919 -163 c0 -5 -4 -3 -9 5 -5 8 -9 22 -9 30
0 16 17 -16 18 -35z m1090 -39 c24 -14 24 -14 3 -20 -26 -8 -42 -1 -42 20 0
17 8 17 39 0z m-1999 -5 c0 -15 -19 -23 -38 -16 -14 5 -14 7 -2 15 19 12 40
13 40 1z m-80 -62 c0 -6 -4 -7 -10 -4 -5 3 -10 11 -10 16 0 6 5 7 10 4 6 -3
10 -11 10 -16z m2136 -5 c-4 -9 -9 -15 -11 -12 -3 3 -3 13 1 22 4 9 9 15 11
12 3 -3 3 -13 -1 -22z m-2226 -45 c0 -5 -7 -9 -15 -9 -15 0 -20 12 -9 23 8 8
24 -1 24 -14z m2325 1 c-3 -5 -10 -10 -16 -10 -5 0 -9 5 -9 10 0 6 7 10 16 10
8 0 12 -4 9 -10z m-2295 -184 c0 -3 -4 -8 -10 -11 -5 -3 -10 -1 -10 4 0 6 5
11 10 11 6 0 10 -2 10 -4z m2260 -6 c0 -5 -4 -10 -10 -10 -5 0 -10 5 -10 10 0
6 5 10 10 10 6 0 10 -4 10 -10z m-2486 -58 c26 -28 45 -56 41 -62 -3 -6 -10
-8 -15 -5 -5 3 -12 0 -16 -6 -5 -9 -11 -6 -21 7 -8 10 -16 18 -18 17 -23 -13
-38 3 -50 56 -2 7 -8 18 -14 24 -18 18 -13 25 17 22 19 -1 43 -18 76 -53z
m156 -2 c6 -11 8 -20 6 -20 -3 0 -10 9 -16 20 -6 11 -8 20 -6 20 3 0 10 -9 16
-20z m1 -107 c37 21 49 22 49 2 0 -8 -8 -15 -17 -15 -10 0 -25 -4 -33 -10 -12
-7 -12 -12 4 -29 23 -25 13 -41 -26 -41 -37 0 -114 35 -121 54 -3 8 6 30 21
50 l26 36 33 -32 c34 -33 34 -33 64 -15z m2489 -58 c-14 -17 -30 -20 -30 -4 0
5 4 8 9 4 5 -3 12 -1 16 5 3 5 9 10 12 10 3 0 0 -7 -7 -15z m-2700 -4 c0 -6
-4 -13 -10 -16 -5 -3 -10 1 -10 9 0 9 5 16 10 16 6 0 10 -4 10 -9z m2820 -6
c0 -8 -4 -15 -9 -15 -13 0 -22 16 -14 24 11 11 23 6 23 -9z m-2735 -204 c-6
-5 -34 -16 -62 -26 -29 -9 -55 -21 -58 -26 -4 -5 -14 -9 -23 -9 -22 0 26 26
93 50 60 22 62 22 50 11z m2683 -11 c23 -7 42 -17 42 -22 0 -4 9 -8 19 -8 11
0 26 -6 33 -14 8 -7 28 -21 46 -30 31 -16 43 -36 22 -36 -5 0 -10 5 -10 11 0
5 -4 8 -9 4 -6 -3 -13 0 -18 7 -12 19 -61 43 -128 64 -64 19 -69 20 -127 23
-21 0 -38 5 -38 11 0 12 114 6 168 -10z m-2521 4 c-3 -3 -12 -4 -19 -1 -8 3
-5 6 6 6 11 1 17 -2 13 -5z m103 -14 c0 -5 -10 -10 -22 -10 -19 0 -20 2 -8 10
19 13 30 13 30 0z m-50 -63 c45 -10 56 -16 58 -34 3 -22 3 -22 -40 -7 -53 20
-197 27 -217 11 -12 -9 -13 -9 -7 0 5 9 2 11 -8 7 -9 -3 -14 -9 -11 -13 2 -4
-2 -8 -10 -8 -8 0 -11 5 -8 11 4 6 -2 3 -13 -6 -10 -9 -31 -20 -46 -23 -16 -4
-25 -11 -22 -16 3 -5 -1 -9 -8 -9 -8 0 -21 -8 -30 -17 -47 -49 -58 -57 -69
-46 -13 13 54 74 123 109 99 51 197 64 308 41z m2386 2 c68 -12 184 -67 184
-86 0 -7 3 -12 8 -10 13 4 63 -41 52 -48 -15 -9 -50 4 -50 20 0 7 -18 20 -40
29 -22 9 -40 21 -40 28 0 6 -3 9 -6 6 -3 -3 -29 3 -57 13 -58 22 -198 27 -256
9 -38 -11 -46 -8 -38 14 11 28 147 43 243 25z m-2936 -13 c0 -2 -8 -10 -17
-17 -16 -13 -17 -12 -4 4 13 16 21 21 21 13z m120 -17 c-7 -11 -14 -18 -17
-15 -3 3 0 12 7 21 18 21 23 19 10 -6z m2606 -61 l19 -21 -27 18 c-29 18 -34
25 -20 25 5 0 17 -10 28 -22z m286 -26 c79 -39 106 -65 88 -87 -10 -13 -16
-12 -44 9 -77 58 -115 70 -218 70 -54 0 -98 1 -98 3 0 1 10 12 23 24 20 19 31
20 104 17 66 -4 93 -10 145 -36z m-23 -87 c60 -33 71 -49 48 -73 -15 -15 -18
-14 -40 6 -30 28 -99 52 -151 52 -30 0 -45 5 -53 19 -7 10 -9 21 -6 24 3 4 38
5 77 4 57 -2 82 -9 125 -32z m-3069 -5 c-8 -5 -12 -10 -7 -11 4 -1 12 -3 17
-4 6 -1 13 -3 18 -4 4 -1 0 -6 -8 -11 -13 -8 -12 -10 3 -10 9 0 17 -8 18 -17
0 -10 2 -26 4 -37 2 -12 -4 -20 -18 -24 -20 -5 -20 -6 -1 -13 17 -7 16 -8 -6
-9 l-25 -2 25 -7 c22 -7 20 -9 -20 -16 -44 -8 -44 -9 -15 -16 19 -4 2 -7 -50
-6 -63 0 -72 1 -40 7 l40 7 -50 3 c-45 2 -47 3 -20 10 l30 8 -35 2 c-19 1 -29
4 -22 7 10 4 9 8 -3 17 -15 10 -14 14 5 36 11 13 23 34 26 47 5 16 14 23 33
24 23 0 24 1 6 8 -19 8 -18 9 5 13 14 3 43 6 65 6 29 1 36 -1 25 -8z m3531 3
c28 -5 30 -7 14 -14 -17 -6 -16 -8 8 -8 15 -1 27 -7 27 -13 0 -7 10 -29 22
-48 32 -49 31 -70 -1 -71 -25 -1 -25 -2 4 -9 28 -7 27 -8 -15 -10 -42 -2 -43
-3 -15 -10 l30 -8 -28 -1 c-16 0 -26 -5 -22 -11 4 -6 -15 -9 -52 -9 -56 2 -56
2 -18 9 l40 7 -50 3 c-44 2 -46 3 -20 9 29 7 29 8 -15 16 -40 7 -42 9 -20 16
l25 7 -25 2 c-21 2 -22 3 -6 7 18 5 18 6 -5 19 -13 7 -19 13 -13 14 5 0 9 14
8 30 -1 22 2 30 14 30 13 0 14 2 4 9 -10 6 -8 10 8 14 12 3 19 10 15 16 -7 13
35 15 86 4z m-2349 -56 c-5 -58 15 -113 45 -124 13 -5 12 -8 -7 -15 -13 -5
-25 -6 -28 -3 -3 3 1 5 8 5 8 0 -3 15 -23 34 -26 23 -38 45 -43 73 -5 35 -3
42 21 61 15 12 29 22 30 22 1 0 0 -24 -3 -53z m218 38 c10 -12 9 -16 -5 -21
-17 -7 -38 13 -29 28 8 12 20 10 34 -7z m-1417 -192 c-13 -2 -35 -2 -50 0 -16
2 -5 4 22 4 28 0 40 -2 28 -4z m3257 -232 c0 -19 -40 -53 -56 -47 -16 6 -15 8
2 21 10 8 14 15 9 15 -6 0 -11 13 -11 30 l-2 30 29 -21 c16 -11 29 -24 29 -28z
m-3140 -60 c0 -5 -9 -7 -20 -4 -11 3 -20 7 -20 9 0 2 9 4 20 4 11 0 20 -4 20
-9z m3270 -1 c-19 -13 -30 -13 -30 0 0 6 10 10 23 10 18 0 19 -2 7 -10z"/>
<path d="M1346 3865 c-3 -8 -1 -15 4 -15 6 0 10 -9 10 -21 0 -11 4 -18 9 -15
10 6 3 54 -9 61 -4 3 -10 -2 -14 -10z"/>
<path d="M2036 5175 c-15 -14 -36 -45 -47 -70 -17 -39 -18 -49 -7 -72 16 -34
73 -73 105 -73 39 0 61 17 93 73 32 56 37 86 18 120 -22 42 -71 64 -61 28 5
-19 -12 -61 -25 -61 -4 0 -13 14 -21 31 -12 27 -12 33 0 40 11 7 9 9 -7 9 -12
0 -33 -11 -48 -25z"/>
<path d="M3336 5175 c-37 -34 -35 -77 8 -145 19 -30 44 -71 55 -92 26 -47 67
-78 100 -77 23 0 24 1 6 9 -11 4 -38 26 -60 49 -36 37 -37 41 -17 41 57 0 112
52 112 106 0 51 -70 134 -112 134 -10 0 -10 -2 1 -9 10 -6 11 -16 4 -37 -12
-37 -26 -40 -43 -8 -13 23 -13 27 5 40 18 13 18 14 -7 14 -14 0 -37 -11 -52
-25z"/>
<path d="M2084 4925 c-18 -14 -18 -14 4 -8 12 3 22 9 22 14 0 12 -3 11 -26 -6z"/>
<path d="M1920 4920 c0 -20 49 -60 74 -60 39 0 40 17 2 30 -19 6 -40 18 -46
26 -14 16 -30 19 -30 4z"/>
<path d="M3137 3455 c-63 -17 -152 -72 -169 -103 -7 -14 -11 -35 -10 -48 2
-13 -8 -43 -23 -67 -14 -25 -26 -60 -27 -79 -1 -35 16 -78 31 -78 5 0 12 -12
16 -27 8 -35 32 -73 45 -73 6 0 8 11 4 24 -3 15 3 43 17 73 l22 48 8 -42 c11
-57 25 -81 62 -103 33 -21 93 -28 82 -10 -4 6 2 7 17 1 22 -8 32 -20 42 -55 5
-15 9 -16 21 -6 20 17 19 36 -4 59 -17 17 -18 21 -5 32 40 33 54 101 34 155
-10 26 -10 26 12 12 12 -8 31 -26 41 -40 16 -21 16 -28 6 -52 -11 -24 -11 -29
4 -38 26 -14 10 -28 -24 -21 -30 6 -30 5 -24 -29 4 -22 3 -38 -4 -42 -21 -13
-11 -24 15 -17 17 4 35 22 51 51 14 25 31 50 40 57 8 6 12 16 9 22 -4 6 3 29
14 51 36 71 15 270 -29 270 -5 0 -12 11 -15 24 -7 28 -36 42 -48 24 -16 -26
-8 -50 20 -60 17 -7 33 -23 40 -40 9 -24 8 -29 -3 -25 -7 3 -33 11 -56 18 -24
7 -48 16 -53 21 -6 4 -27 8 -47 8 -21 0 -40 4 -44 10 -5 8 18 16 97 34 34 8
48 44 22 63 -23 17 -123 16 -187 -2z m-47 -219 c0 -2 -12 -11 -27 -20 l-28
-17 24 20 c23 21 31 25 31 17z m36 -77 c9 -16 -12 -33 -31 -25 -14 5 -15 9 -5
21 15 18 26 19 36 4z m139 -89 c3 -5 1 -10 -4 -10 -6 0 -11 5 -11 10 0 6 2 10
4 10 3 0 8 -4 11 -10z m-15 -35 c0 -8 -4 -15 -10 -15 -5 0 -10 7 -10 15 0 8 5
15 10 15 6 0 10 -7 10 -15z m-10 -39 c0 -2 -7 -7 -16 -10 -8 -3 -12 -2 -9 4 6
10 25 14 25 6z"/>
<path d="M1153 3424 l-28 -25 33 22 c17 13 32 24 32 26 0 8 -11 1 -37 -23z"/>
<path d="M356 2958 c5 -22 5 -22 -10 -4 -16 19 -16 19 -16 -5 0 -63 85 -179
131 -179 8 0 0 9 -18 19 -54 34 -103 138 -68 147 6 1 28 -19 50 -45 46 -55 98
-96 103 -81 2 6 -7 32 -20 58 -24 48 -80 95 -130 107 -24 6 -26 4 -22 -17z"/>
<path d="M5100 2955 c-56 -31 -77 -53 -85 -87 -11 -45 26 -35 79 22 29 31 52
47 61 44 8 -4 15 -7 15 -9 0 -16 -37 -82 -62 -112 -29 -33 -30 -36 -8 -22 33
21 78 95 85 139 3 19 3 29 -1 23 -9 -21 -27 -15 -21 7 7 26 -8 25 -63 -5z"/>
<path d="M3516 2804 c-3 -8 -10 -13 -15 -9 -5 3 -21 -5 -35 -17 -13 -13 -36
-32 -50 -42 -18 -13 -24 -25 -21 -37 6 -18 -25 -72 -55 -96 -8 -6 -12 -15 -8
-19 5 -4 -1 -14 -13 -22 -13 -9 -17 -18 -11 -25 12 -15 12 -49 0 -64 -5 -7 -5
-14 2 -18 6 -3 7 -11 3 -18 -3 -6 -8 -34 -10 -61 -1 -28 -4 -75 -7 -105 -3
-45 -1 -54 14 -58 11 -3 16 -11 13 -19 -4 -12 -8 -12 -21 -2 -14 11 -14 10 -5
-7 8 -13 8 -25 1 -38 -5 -10 -7 -21 -4 -24 3 -3 9 2 13 12 7 21 39 55 51 55 4
0 7 10 7 23 0 12 3 24 6 27 3 3 11 14 17 25 10 17 11 17 12 3 0 -9 5 -20 10
-23 7 -4 9 2 5 18 -4 15 1 39 13 63 11 22 20 44 21 49 4 37 15 76 22 81 5 3 9
15 9 27 0 12 7 31 15 41 8 11 15 26 15 34 0 13 21 66 41 104 10 20 12 101 3
136 -7 25 -29 29 -38 6z"/>
<path d="M2123 2800 c-12 -5 -121 -10 -241 -12 -121 -2 -224 -6 -228 -10 -8
-9 31 -61 105 -140 42 -45 70 -64 111 -79 l55 -20 -49 6 c-32 4 -46 3 -42 -4
4 -5 13 -8 21 -4 8 3 15 0 15 -6 0 -6 8 -8 18 -5 9 3 6 -1 -7 -9 l-24 -14 32
-11 c49 -17 36 -22 -20 -7 -59 16 -72 25 -38 26 l24 1 -25 7 c-15 4 -28 3 -33
-3 -6 -8 -10 -7 -14 2 -2 6 -10 12 -16 12 -7 0 -19 5 -27 10 -13 9 -13 11 0
20 13 8 12 10 -2 10 -11 0 -18 -8 -18 -20 0 -12 7 -20 18 -21 10 0 12 -3 4 -6
-6 -2 -10 -9 -7 -13 3 -5 1 -12 -5 -15 -6 -4 -9 -3 -8 2 4 16 -14 53 -23 47
-6 -3 -13 3 -16 15 -3 12 -13 21 -22 21 -14 0 -14 2 -1 10 11 7 2 9 -29 5 -36
-4 -42 -3 -32 9 9 11 8 15 -4 19 -8 4 -14 1 -12 -5 1 -6 -4 -13 -12 -16 -9 -3
-11 0 -6 8 6 10 4 12 -9 7 -11 -5 -15 -3 -10 5 5 7 0 9 -14 6 -13 -4 -20 -2
-16 4 3 5 17 7 31 3 23 -5 24 -4 11 9 -10 9 -24 12 -38 9 -23 -6 -23 -6 -4 14
15 15 24 18 39 10 18 -9 18 -7 -2 15 -27 28 -29 40 -8 32 8 -4 15 -3 15 1 0 3
-7 13 -15 21 -12 12 -15 12 -16 2 0 -7 -4 -3 -9 10 -6 14 -18 22 -33 22 -21 0
-27 -9 -46 -72 -12 -40 -27 -108 -34 -152 -7 -52 -17 -82 -28 -89 -14 -8 -6
-20 51 -76 69 -69 130 -153 130 -181 0 -9 -22 -27 -52 -43 -70 -35 -112 -60
-116 -69 -2 -5 -10 -8 -18 -8 -17 0 -108 -42 -112 -52 -2 -5 -12 -8 -23 -8
-10 0 -19 -4 -19 -10 0 -5 -12 -10 -27 -10 -14 0 -24 -3 -20 -6 7 -7 -60 -44
-79 -44 -7 0 -14 -7 -18 -15 -3 -8 -15 -15 -26 -15 -12 0 -18 -5 -15 -10 4 -6
-7 -13 -24 -16 -17 -4 -28 -10 -26 -14 3 -5 -8 -11 -25 -15 -17 -4 -28 -10
-25 -15 6 -9 -18 -20 -46 -20 -12 0 -16 -5 -13 -14 4 -11 -4 -16 -28 -18 -18
-2 -32 -7 -30 -13 4 -12 -24 -23 -63 -25 -16 -1 -24 -4 -17 -7 28 -11 7 -21
-68 -33 -85 -13 -115 -8 -59 9 31 10 28 10 -21 6 l-55 -5 35 19 35 19 -45 -4
-45 -4 30 14 30 15 -35 1 -35 2 30 14 30 15 -37 -4 c-21 -2 -38 -1 -38 0 0 2
15 11 33 19 l32 15 -37 -6 c-47 -7 -49 0 -5 19 l32 15 -34 -6 c-24 -4 -32 -3
-27 5 4 7 13 12 21 12 8 0 16 4 19 8 3 5 -9 7 -27 5 l-32 -4 25 16 25 16 -33
-4 c-17 -2 -32 -2 -32 0 0 1 15 9 32 17 l33 14 -40 -4 -40 -4 30 15 30 16 -40
-5 c-39 -5 -39 -5 -15 9 l25 14 -25 1 -25 1 25 14 25 14 -25 1 -25 1 25 14
c25 14 25 15 -10 9 l-35 -5 25 16 25 16 -30 -6 c-29 -6 -29 -6 -10 10 20 16
20 16 -5 11 -24 -5 -25 -5 -5 11 19 15 19 15 -10 9 l-30 -6 25 16 25 15 -25
-5 c-24 -5 -25 -5 -5 11 20 15 20 15 -3 10 -12 -3 -20 -2 -17 3 3 4 -3 11 -12
15 -16 6 -16 8 5 23 22 17 22 18 2 18 -45 0 -110 -201 -110 -341 0 -103 28
-216 77 -315 41 -80 130 -184 166 -194 21 -5 53 -43 44 -52 -2 -2 -24 7 -48
20 -31 18 -68 27 -126 32 l-83 7 0 -26 c0 -19 -4 -25 -15 -21 -8 4 -12 10 -9
15 9 15 -3 10 -17 -8 -8 -9 -9 -14 -3 -10 6 3 27 -5 47 -19 39 -26 48 -37 22
-28 -8 4 -15 1 -15 -5 0 -6 -7 -8 -15 -5 -18 7 -20 -7 -2 -25 23 -26 -10 -2
-89 64 -43 36 -82 65 -86 65 -18 0 -6 -19 29 -46 20 -15 73 -61 117 -101 45
-41 105 -86 133 -100 29 -15 53 -30 53 -34 0 -3 -15 -9 -33 -12 -17 -3 -52
-15 -77 -26 -52 -24 -165 -116 -165 -134 0 -13 95 -48 181 -67 49 -10 130 0
197 25 28 11 20 -14 -15 -43 -139 -117 -212 -216 -254 -345 -37 -113 -40 -277
-6 -385 35 -112 35 -112 207 -112 l145 0 0 43 c2 188 18 369 33 379 8 5 6 12
-4 25 -18 20 -17 85 0 91 13 4 14 52 2 104 -5 22 -5 36 0 32 8 -5 13 10 10 29
-3 18 25 96 56 156 36 69 121 180 139 180 6 1 19 10 30 22 18 20 148 89 169
89 6 0 22 -15 35 -32 22 -30 43 -50 89 -84 13 -10 13 -14 -2 -29 -48 -47 -69
-141 -41 -183 30 -46 40 -52 73 -46 17 4 34 10 36 15 7 10 65 -10 65 -23 0
-17 112 -3 163 21 45 21 50 21 67 6 16 -14 19 -14 34 10 9 14 12 25 6 25 -6 0
-9 4 -5 9 7 12 46 5 55 -9 9 -15 50 72 50 108 0 27 6 34 35 46 19 8 35 20 35
25 0 12 55 43 62 36 9 -9 73 18 105 44 38 30 42 51 13 68 -19 12 -19 14 5 65
30 64 30 73 7 96 -11 11 -21 29 -25 41 -4 17 1 24 30 36 20 8 37 15 39 15 2 0
4 -19 4 -42 0 -64 33 -190 63 -239 64 -108 375 -394 584 -537 17 -12 40 -22
52 -22 24 0 71 -20 71 -30 0 -4 11 -10 25 -13 35 -6 30 25 -5 33 -15 3 -26 14
-27 25 -2 17 -2 18 5 3 5 -12 11 -15 22 -8 11 7 12 12 4 20 -8 8 -22 9 -48 2
-20 -6 -34 -7 -32 -3 3 4 -12 15 -33 24 -64 29 -290 218 -426 358 -104 107
-138 149 -168 210 -50 98 -60 181 -28 232 41 66 110 86 126 36 15 -47 103
-116 160 -124 24 -4 44 -18 39 -27 -4 -6 6 -2 20 7 32 21 46 45 46 79 0 33 15
41 42 22 27 -19 67 -20 102 -4 21 9 33 8 66 -7 36 -16 45 -17 81 -5 32 11 47
11 73 2 43 -16 62 -15 91 4 14 9 35 14 47 11 17 -4 33 4 63 34 22 21 46 39 53
39 10 0 12 8 7 30 -4 19 -3 30 4 30 6 0 11 -11 11 -25 0 -22 3 -24 20 -15 11
6 17 17 14 24 -8 22 14 56 31 50 8 -4 15 -1 15 5 0 20 52 61 109 87 32 15 72
46 103 79 35 38 73 66 126 92 75 37 78 38 193 38 64 0 115 3 113 6 -6 10 23
19 39 13 6 -2 21 -16 32 -30 11 -14 31 -35 45 -47 14 -12 51 -49 83 -81 l58
-60 78 -7 c47 -4 93 -15 118 -27 42 -22 153 -137 153 -159 0 -18 39 -40 82
-46 32 -5 41 -2 59 21 11 15 23 26 25 25 3 -2 6 -40 8 -86 3 -72 8 -93 41
-160 21 -43 36 -80 33 -82 -3 -3 -22 2 -42 10 -47 20 -120 16 -124 -6 -2 -11
14 -20 55 -33 76 -24 163 -65 139 -66 -15 0 -16 -3 -7 -14 7 -8 21 -12 31 -9
15 4 20 0 20 -15 0 -25 26 -49 33 -30 3 7 6 1 6 -13 1 -14 10 -34 20 -43 19
-17 19 -17 13 6 -5 22 -5 22 11 6 9 -9 17 -24 17 -32 0 -9 3 -15 8 -14 4 2 8
-1 10 -7 2 -5 13 -20 24 -32 12 -13 19 -23 16 -23 -3 0 12 -18 34 -40 21 -23
36 -46 32 -52 -4 -6 -3 -8 2 -5 6 3 22 -17 37 -44 16 -27 23 -49 18 -49 -6 0
-11 5 -11 11 0 5 -4 8 -9 5 -9 -6 -74 48 -66 56 3 3 -4 13 -16 24 l-21 19 7
-35 c4 -19 12 -44 17 -54 6 -11 12 -42 15 -70 2 -31 11 -58 22 -71 57 -62 107
-245 67 -245 -9 0 -16 5 -16 10 0 6 5 10 10 10 6 0 4 13 -5 30 -9 17 -13 30
-11 30 3 0 -1 15 -9 34 -8 18 -11 36 -8 40 4 3 1 6 -5 6 -15 0 -15 -12 -1
-120 6 -47 11 -93 11 -102 -1 -10 6 -18 15 -18 14 0 14 -3 -1 -25 -12 -17 -16
-48 -16 -110 l0 -85 134 0 134 0 26 64 c35 88 50 222 37 321 -22 153 -102 300
-222 407 -39 34 -75 70 -79 79 -8 14 -4 15 43 2 78 -20 161 -16 253 12 76 23
129 55 91 55 -8 0 -46 25 -82 55 -37 30 -71 55 -75 55 -4 0 -34 12 -66 26
l-59 26 50 25 c59 30 152 106 137 111 -6 2 -22 -4 -37 -14 -21 -14 -24 -14
-19 -1 4 12 -2 15 -27 14 -28 -2 -35 3 -46 28 -35 78 -37 80 -78 81 -22 1 -48
-2 -57 -7 -30 -16 -7 25 32 57 19 16 43 38 53 49 39 45 100 159 124 232 46
145 41 366 -10 410 -15 12 -18 13 -9 2 6 -9 8 -20 4 -24 -4 -5 -1 -5 7 0 10 6
12 4 7 -4 -5 -7 -15 -10 -23 -6 -14 5 -14 3 -2 -12 12 -15 12 -16 -5 -10 -17
7 -17 6 -5 -9 12 -15 11 -16 -11 -9 l-25 8 25 -22 c22 -20 22 -21 3 -12 -34
17 -40 12 -13 -9 l25 -19 -25 5 c-25 5 -25 5 -5 -11 19 -16 19 -16 -10 -9 -29
6 -29 6 -10 -10 19 -16 19 -16 -10 -11 l-30 6 25 -15 25 -15 -25 -1 c-25 -1
-25 -1 -5 -17 19 -15 19 -15 -10 -9 -29 6 -29 6 -10 -10 19 -16 19 -16 -15
-10 l-35 5 28 -15 c36 -19 34 -25 -5 -18 l-33 5 25 -15 25 -15 -24 -1 c-24 0
-24 0 -5 -16 18 -15 18 -15 -10 -11 l-30 5 25 -19 24 -19 -24 0 c-24 0 -24 0
-5 -16 18 -15 17 -15 -15 -10 l-33 6 23 -21 24 -20 -35 6 -35 6 28 -16 c28
-16 36 -27 15 -21 -7 3 -29 7 -48 10 l-35 5 35 -19 c44 -24 22 -26 -68 -4 -66
17 -100 33 -71 35 7 1 -6 7 -31 13 -25 7 -44 18 -43 24 2 6 -12 15 -30 20 -17
5 -31 14 -29 21 1 6 -7 11 -18 11 -11 0 -28 9 -37 20 -10 11 -25 20 -35 20
-10 0 -18 7 -18 15 0 8 -9 15 -20 15 -11 0 -23 6 -26 14 -3 8 -16 17 -30 20
-13 4 -24 11 -24 16 0 6 -7 10 -15 10 -9 0 -18 7 -21 15 -4 8 -14 15 -24 15
-10 0 -23 7 -30 15 -7 8 -19 15 -26 15 -8 0 -14 3 -14 8 0 4 -17 16 -37 27
-21 11 -40 22 -43 25 -6 6 -50 30 -111 62 -24 13 -46 26 -49 29 -3 4 -16 10
-29 14 -13 4 -46 20 -73 36 -27 16 -53 29 -58 29 -17 0 -20 18 -8 47 6 15 11
31 10 36 -1 4 2 7 7 7 5 0 11 9 14 20 3 12 1 18 -5 14 -6 -4 -14 -1 -18 7 -5
7 -17 14 -27 15 -15 2 -14 -1 6 -17 13 -10 22 -20 20 -20 -12 -4 -83 -10 -146
-12 -40 -1 -73 -3 -73 -5 0 -1 10 -6 21 -11 20 -7 -53 -8 -121 -1 l-25 2 25 7
c14 5 29 4 35 -1 13 -12 25 -10 25 4 0 6 -3 9 -6 5 -4 -3 -13 0 -21 8 -16 17
-75 20 -102 6 -23 -13 -53 4 -32 18 8 5 21 6 30 3 14 -5 14 -4 1 10 -10 11
-20 13 -32 7 -24 -13 -28 -11 -22 9 5 14 4 14 -6 -2 -8 -12 -15 -15 -19 -7 -4
6 -20 -15 -36 -47 -17 -31 -33 -58 -37 -60 -5 -2 -8 -10 -8 -18 0 -8 -5 -20
-10 -27 -6 -7 -19 -23 -30 -36 -11 -13 -20 -18 -20 -11 0 20 -13 3 -17 -21 -4
-24 -28 -51 -37 -42 -3 4 -7 1 -7 -5 -1 -7 -2 -16 -3 -21 -2 -18 -71 -93 -122
-132 -29 -22 -81 -55 -116 -73 -35 -18 -85 -45 -112 -59 -41 -23 -62 -27 -128
-27 -50 0 -89 5 -108 15 -48 25 -119 96 -165 165 -24 36 -64 87 -89 114 -25
27 -46 55 -46 62 0 7 -3 14 -7 16 -5 2 -21 22 -37 45 -34 50 -55 133 -50 193
3 32 -2 54 -21 89 -15 25 -22 47 -16 49 5 2 8 9 5 17 -3 7 0 16 5 20 6 3 9 12
5 18 -3 7 1 4 10 -7 18 -22 36 -14 29 14 -3 13 1 22 11 26 11 4 16 16 15 33
-2 18 6 35 25 54 17 17 26 36 24 50 -2 18 -9 22 -40 22 -20 0 -40 3 -44 8 -12
12 -22 8 -44 -15 l-21 -23 -19 23 c-10 12 -22 22 -27 22 -5 0 -15 9 -23 20
-16 22 -24 23 -57 10z m182 -130 c3 -5 2 -10 -4 -10 -5 0 -13 5 -16 10 -3 6
-2 10 4 10 5 0 13 -4 16 -10z m-345 -96 c0 -8 -9 -14 -22 -13 -17 1 -18 3 -6
6 11 3 15 10 11 20 -4 11 -2 14 5 9 7 -4 12 -14 12 -22z m-387 9 c-7 -2 -19
-2 -25 0 -7 3 -2 5 12 5 14 0 19 -2 13 -5z m47 -29 c0 -2 -15 -4 -32 -4 -23 0
-29 3 -19 9 12 8 51 4 51 -5z m50 6 c0 -5 -4 -10 -10 -10 -5 0 -10 5 -10 10 0
6 5 10 10 10 6 0 10 -4 10 -10z m281 -37 c13 -16 12 -17 -3 -4 -10 7 -18 15
-18 17 0 8 8 3 21 -13z m-16 -13 c3 -6 -1 -7 -9 -4 -18 7 -21 14 -7 14 6 0 13
-4 16 -10z m1713 -217 c-10 -2 -28 -2 -40 0 -13 2 -5 4 17 4 22 1 32 -1 23 -4z
m-55 -20 c-7 -2 -21 -2 -30 0 -10 3 -4 5 12 5 17 0 24 -2 18 -5z m253 -2 c-3
-5 -17 -11 -32 -14 -29 -5 -20 9 11 16 11 3 21 5 23 6 2 0 1 -3 -2 -8z m-566
-384 c0 -88 -2 -96 -31 -140 -17 -26 -37 -47 -45 -47 -7 0 -18 -9 -24 -20 -9
-16 -17 -19 -53 -14 -32 5 -46 2 -56 -10 -17 -20 -51 -21 -77 -1 -19 14 -19
15 1 20 11 4 31 21 43 40 13 18 41 45 62 60 22 15 42 36 45 46 4 11 12 19 19
19 17 0 92 77 89 90 -2 6 2 10 7 10 6 0 10 9 10 20 0 11 2 20 5 20 3 0 5 -42
5 -93z m-1592 -154 c-10 -2 -26 -2 -35 0 -10 3 -2 5 17 5 19 0 27 -2 18 -5z
m35 -30 c-13 -2 -35 -2 -50 0 -16 2 -5 4 22 4 28 0 40 -2 28 -4z m35 -30 c-10
-2 -28 -2 -40 0 -13 2 -5 4 17 4 22 1 32 -1 23 -4z m-102 -54 c19 -21 19 -21
-9 -8 -15 7 -27 16 -27 21 0 14 16 9 36 -13z m1461 15 c-3 -3 -12 -4 -19 -1
-8 3 -5 6 6 6 11 1 17 -2 13 -5z m-1302 -23 l40 -9 -45 0 c-25 -1 -63 3 -85 7
l-40 9 45 0 c25 1 63 -3 85 -7z m1269 -16 c-4 -8 -8 -15 -10 -15 -2 0 -4 7 -4
15 0 8 4 15 10 15 5 0 7 -7 4 -15z m-69 -5 c3 -5 1 -10 -4 -10 -6 0 -11 5 -11
10 0 6 2 10 4 10 3 0 8 -4 11 -10z m-1205 -10 c20 -7 17 -8 -20 -8 -25 0 -56
4 -70 8 -20 7 -17 8 20 8 25 0 56 -4 70 -8z m-438 -26 c-13 -9 -26 -13 -30 -9
-8 8 17 25 38 25 9 0 6 -6 -8 -16z m1630 -49 c-15 -32 -27 -32 -48 0 -16 24
-16 27 2 46 18 20 18 20 38 0 17 -17 18 -24 8 -46z m-1401 24 c13 -26 7 -24
-22 7 -17 19 -19 23 -6 18 10 -3 22 -15 28 -25z m169 21 c13 -9 13 -10 0 -9
-8 0 -24 4 -35 9 l-20 9 20 0 c11 0 27 -4 35 -9z m780 -24 c0 -7 -6 -21 -14
-31 -13 -18 -14 -17 -32 9 -17 28 -17 29 1 42 20 15 45 3 45 -20z m299 10 c15
-18 -2 -56 -24 -56 -22 0 -39 38 -24 56 6 8 17 14 24 14 7 0 18 -6 24 -14z
m-159 -25 c0 -23 -11 -33 -26 -23 -18 12 -12 42 8 42 11 0 18 -7 18 -19z
m-1546 -12 c-10 -11 -21 -41 -25 -67 l-6 -47 -2 52 c-1 35 4 57 15 67 23 24
40 19 18 -5z m1763 -1 c-3 -8 -6 -5 -6 6 -1 11 2 17 5 13 3 -3 4 -12 1 -19z
m-422 -28 c3 -5 1 -10 -4 -10 -6 0 -11 5 -11 10 0 6 2 10 4 10 3 0 8 -4 11
-10z m77 -12 c-7 -7 -12 -8 -12 -2 0 14 12 26 19 19 2 -3 -1 -11 -7 -17z m388
1 c0 -6 -4 -7 -10 -4 -5 3 -10 11 -10 16 0 6 5 7 10 4 6 -3 10 -11 10 -16z
m-1913 -81 c44 -61 72 -110 81 -143 14 -55 24 -65 66 -65 27 0 28 -1 13 -24
-12 -17 -13 -26 -4 -35 17 -17 -5 -13 -32 5 -18 13 -25 14 -31 4 -5 -9 -19 0
-46 29 -35 37 -44 41 -87 41 -27 0 -65 -8 -88 -19 -22 -11 -39 -17 -37 -13 2
4 18 37 36 74 33 67 52 143 52 204 0 19 2 34 4 34 3 0 35 -42 73 -92z m1758
82 c3 -5 1 -10 -4 -10 -6 0 -11 5 -11 10 0 6 2 10 4 10 3 0 8 -4 11 -10z m85
6 c0 -3 -4 -8 -10 -11 -5 -3 -10 -1 -10 4 0 6 5 11 10 11 6 0 10 -2 10 -4z
m-350 -36 c0 -5 -6 -10 -14 -10 -8 0 -18 5 -21 10 -3 6 3 10 14 10 12 0 21 -4
21 -10z m-1274 -29 c2 -34 -13 -34 -18 -1 -3 19 -1 29 6 27 6 -2 12 -14 12
-26z m477 -8 c-5 -44 -22 -80 -23 -47 0 33 12 84 20 84 4 0 5 -16 3 -37z m950
30 c-7 -2 -19 -2 -25 0 -7 3 -2 5 12 5 14 0 19 -2 13 -5z m160 0 c-7 -2 -19
-2 -25 0 -7 3 -2 5 12 5 14 0 19 -2 13 -5z m-1247 -49 c-9 -28 -12 -31 -14
-14 -4 26 4 50 16 50 5 0 4 -16 -2 -36z m3178 17 c7 -11 -3 -41 -14 -41 -4 0
-10 11 -12 25 -5 25 14 36 26 16z m-3249 -22 c13 -13 22 -44 26 -87 10 -92 1
-103 -41 -47 -38 51 -73 77 -92 70 -7 -3 -19 -1 -27 4 -18 12 -5 51 18 51 9 0
26 7 37 15 27 20 58 18 79 -6z m-364 -69 c5 0 12 1 15 3 8 3 33 -45 34 -65 1
-53 -73 46 -84 112 -5 33 -5 33 10 -7 9 -24 20 -43 25 -43z m722 40 c-3 -11
-7 -20 -9 -20 -2 0 -4 9 -4 20 0 11 4 20 9 20 5 0 7 -9 4 -20z m-124 -8 c-14
-23 -4 -85 16 -106 13 -12 10 -20 -19 -63 -18 -26 -41 -50 -50 -51 -16 -3 -17
1 -10 30 4 18 8 60 8 94 1 54 4 63 31 87 36 32 39 33 24 9z m-437 -51 c-22
-31 -28 -35 -34 -22 -16 40 -9 56 27 58 l35 3 -28 -39z m235 -217 c-3 -3 -12
-4 -19 -1 -8 3 -5 6 6 6 11 1 17 -2 13 -5z m-282 -14 c3 -5 2 -10 -4 -10 -5 0
-13 5 -16 10 -3 6 -2 10 4 10 5 0 13 -4 16 -10z m114 -142 c11 -8 18 -18 14
-21 -17 -18 -87 4 -97 30 -7 18 53 12 83 -9z m148 -110 c-3 -8 -6 -5 -6 6 -1
11 2 17 5 13 3 -3 4 -12 1 -19z m-952 -285 c0 -14 -5 -28 -12 -30 -7 -3 -9
-11 -6 -19 3 -8 0 -14 -6 -14 -6 0 -10 11 -9 25 1 14 5 25 9 25 4 0 9 9 12 20
7 28 13 25 12 -7z m-38 -128 c0 -8 -4 -12 -9 -9 -5 3 -6 10 -3 15 9 13 12 11
12 -6z m4451 -124 c-2 -23 -5 -28 -15 -19 -11 9 -11 14 -1 26 11 13 11 14 -1
7 -10 -5 -12 -4 -7 3 13 22 26 12 24 -17z"/>
<path d="M1089 1172 c16 -31 38 -45 47 -31 4 7 -2 20 -16 31 -29 23 -44 23
-31 0z"/>
<path d="M3855 2774 c-20 -30 -88 -97 -128 -126 l-28 -20 6 35 c6 30 3 40 -19
62 -25 25 -29 26 -49 12 -23 -15 -28 -57 -12 -106 12 -36 -16 -23 -36 17 l-17
33 -4 -36 c-3 -31 1 -40 25 -61 16 -13 35 -24 43 -24 27 0 79 27 106 56 53 58
95 110 117 147 25 42 23 51 -4 11z"/>
<path d="M265 2774 c-144 -18 -209 -44 -199 -79 27 -87 232 -196 364 -193 l55
1 -65 7 c-67 8 -132 30 -185 62 -16 10 -41 23 -55 28 -28 13 -115 98 -107 106
5 5 52 -5 122 -26 43 -13 345 -70 372 -70 20 0 21 3 13 25 -19 49 -110 112
-143 99 -8 -3 -18 -15 -23 -27 -6 -20 -7 -19 -11 10 -2 17 -10 36 -16 41 -15
12 -82 21 -122 16z"/>
<path d="M1328 2773 c-3 -4 -6 -28 -7 -53 -1 -25 -4 -53 -7 -62 -3 -10 -1 -18
4 -18 5 0 12 30 15 68 5 65 4 82 -5 65z"/>
<path d="M5133 2759 c-7 -7 -13 -27 -14 -43 0 -30 -1 -31 -12 -7 -9 20 -16 22
-49 18 -37 -5 -73 -29 -61 -41 4 -3 -1 -6 -10 -6 -20 0 -22 -19 -4 -44 11 -15
19 -16 72 -6 33 6 74 12 90 15 97 14 281 58 293 70 8 8 -15 22 -58 36 -57 18
-233 23 -247 8z"/>
<path d="M3125 2741 c-8 -27 2 -45 36 -65 30 -18 32 -18 58 1 17 14 26 29 26
49 0 28 -1 29 -57 31 -47 2 -58 -1 -63 -16z"/>
<path d="M3581 2743 c0 -12 -4 -30 -7 -40 -5 -14 -4 -15 5 -7 7 6 11 24 8 40
-3 21 -4 23 -6 7z"/>
<path d="M2647 2704 c-11 -14 -30 -29 -43 -34 -29 -11 -32 -49 -9 -103 25 -61
46 -73 125 -75 59 -1 74 2 91 19 11 11 35 25 52 31 46 16 67 37 67 69 0 38
-65 74 -105 59 -59 -23 -135 2 -135 44 0 24 -23 19 -43 -10z"/>
<path d="M4060 2690 c-8 -5 -10 -10 -3 -10 9 0 10 -9 3 -40 0 -3 -9 5 -20 18
-23 28 -39 22 -32 -13 3 -20 7 -23 18 -14 18 15 17 1 -1 -31 -17 -29 -19 -44
-6 -35 5 3 12 1 16 -4 6 -10 -27 -7 -44 4 -5 3 -12 1 -16 -5 -3 -5 -13 -10
-22 -10 -13 0 -14 2 -2 18 13 15 12 16 -3 3 -10 -7 -25 -11 -33 -7 -8 3 -15 1
-15 -4 0 -6 6 -10 13 -11 6 0 3 -5 -8 -10 -17 -8 -16 -9 7 -6 15 2 25 1 23 -4
-3 -4 -1 -10 4 -13 5 -3 11 1 15 9 7 20 28 19 24 -2 -3 -17 -18 -21 -86 -25
-24 -1 -39 -4 -33 -6 26 -9 -4 -22 -37 -17 -29 4 -27 2 13 -10 28 -8 55 -13
62 -10 7 2 15 -1 19 -7 4 -6 3 -8 -4 -4 -6 3 -13 2 -17 -3 -3 -6 5 -8 20 -5
14 2 25 1 25 -4 0 -5 6 -9 13 -10 6 -1 28 -3 47 -5 21 -3 44 2 59 12 14 9 26
15 28 14 2 -2 9 -3 17 -3 19 0 11 132 -13 207 -13 43 -19 51 -31 43z m10 -105
c0 -2 -9 -3 -19 -2 -11 0 -18 5 -15 9 4 6 34 0 34 -7z m-20 -71 c0 -8 -19 -13
-24 -6 -3 5 1 9 9 9 8 0 15 -2 15 -3z m20 -8 c0 -2 -8 -10 -17 -17 -16 -13
-17 -12 -4 4 13 16 21 21 21 13z m-140 -25 c0 -5 -13 -11 -30 -13 -16 -3 -30
-1 -30 3 0 4 12 10 28 12 15 2 28 5 30 6 1 0 2 -3 2 -8z m60 5 c0 -2 -8 -10
-17 -17 -16 -13 -17 -12 -4 4 13 16 21 21 21 13z"/>
<path d="M5408 2650 c-53 -53 -210 -129 -289 -140 l-64 -9 61 3 c98 6 272 88
316 149 29 41 19 39 -24 -3z"/>
<path d="M1745 2610 c-3 -5 -1 -10 4 -10 6 0 11 5 11 10 0 6 -2 10 -4 10 -3 0
-8 -4 -11 -10z"/>
<path d="M1721 2594 c0 -11 3 -14 6 -6 3 7 2 16 -1 19 -3 4 -6 -2 -5 -13z"/>
<path d="M3990 2595 c-10 -12 -10 -15 3 -15 8 0 17 7 21 15 3 8 2 15 -3 15 -5
0 -14 -7 -21 -15z"/>
<path d="M1692 2580 c14 -22 24 -19 15 5 -4 8 -11 15 -17 15 -6 0 -6 -7 2 -20z"/>
<path d="M3806 2565 c-11 -8 -16 -15 -10 -15 5 0 18 7 28 15 11 8 16 15 10 15
-5 0 -18 -7 -28 -15z"/>
<path d="M3853 2567 c-13 -5 -23 -13 -23 -18 0 -10 39 1 46 13 9 15 1 16 -23
5z"/>
<path d="M1790 2550 c0 -5 5 -10 10 -10 6 0 10 5 10 10 0 6 -4 10 -10 10 -5 0
-10 -4 -10 -10z"/>
<path d="M3860 2526 c0 -2 7 -9 15 -16 9 -7 15 -8 15 -2 0 5 -7 12 -15 16 -8
3 -15 4 -15 2z"/>
<path d="M2590 2394 c-19 -8 -49 -26 -66 -39 -18 -14 -40 -25 -49 -25 -30 0
-29 -30 2 -63 38 -40 84 -125 71 -129 -11 -4 27 -110 56 -155 26 -39 92 -83
126 -83 89 0 143 47 193 170 40 97 81 172 102 190 22 18 20 24 -37 79 -70 68
-102 78 -173 55 -51 -16 -58 -16 -98 0 -52 20 -82 20 -127 0z m220 -96 c75 16
109 8 135 -31 18 -28 11 -77 -10 -77 -7 0 -15 -9 -18 -20 -3 -11 -12 -20 -21
-20 -9 0 -16 -5 -16 -11 0 -6 -11 -20 -25 -31 -14 -11 -25 -28 -25 -39 0 -19
-9 -23 -42 -20 -10 1 -18 -2 -18 -7 0 -17 -31 -22 -46 -8 -8 8 -17 28 -20 45
-6 28 -4 30 27 34 l34 4 -35 1 c-31 2 -70 28 -70 48 0 3 -16 25 -36 50 -21 25
-34 50 -31 58 9 24 66 34 112 21 31 -9 54 -8 105 3z"/>
<path d="M2727 2242 c-23 -25 -21 -58 3 -82 25 -25 42 -25 63 -2 24 26 21 68
-5 86 -29 21 -41 20 -61 -2z"/>
<path d="M2772 2114 c10 -10 58 -12 64 -3 3 5 -12 9 -32 9 -21 0 -35 -3 -32
-6z"/>
<path d="M3496 2384 c-9 -24 -2 -26 12 -4 7 11 8 20 3 20 -5 0 -12 -7 -15 -16z"/>
<path d="M3590 2370 c-8 -5 -10 -10 -5 -10 6 0 17 5 25 10 8 5 11 10 5 10 -5
0 -17 -5 -25 -10z"/>
<path d="M350 2190 c8 -5 20 -10 25 -10 6 0 3 5 -5 10 -8 5 -19 10 -25 10 -5
0 -3 -5 5 -10z"/>
<path d="M4285 1260 c-16 -4 -60 -8 -97 -9 -38 0 -68 -5 -68 -10 0 -4 44 -15
98 -23 l97 -16 28 26 c15 14 27 29 27 34 0 10 -43 9 -85 -2z"/>
<path d="M3494 1249 c-4 -7 -21 -40 -37 -73 -24 -47 -67 -97 -190 -221 -88
-88 -159 -164 -158 -170 2 -5 0 -7 -4 -3 -4 4 -51 -26 -104 -66 -53 -40 -112
-81 -131 -92 -19 -10 -41 -25 -48 -31 -7 -7 -20 -13 -29 -13 -22 0 -10 -25 13
-26 71 -2 298 171 531 408 142 143 177 194 185 262 3 30 -15 46 -28 25z"/>
<path d="M3847 1253 c-4 -3 -32 -5 -63 -4 -53 2 -56 1 -51 -19 5 -20 4 -21
-12 -6 -26 24 -105 18 -102 -8 3 -18 0 -32 -9 -46 -8 -12 -12 -11 -30 8 -44
47 -53 20 -14 -45 25 -44 25 -44 5 -50 -26 -7 -27 -21 -3 -30 9 -4 25 -17 34
-29 21 -26 104 -49 145 -40 16 4 51 6 78 6 90 -1 107 0 127 11 10 6 18 18 16
27 -1 9 1 23 6 30 4 7 3 19 -4 26 -6 8 -8 26 -4 43 l7 28 -22 -19 c-11 -11
-21 -15 -21 -11 0 4 -8 0 -19 -9 -17 -15 -19 -15 -25 -1 -8 23 -9 20 24 54 27
26 29 33 19 55 -13 28 -35 40 -45 25 -4 -7 -10 -6 -18 0 -7 6 -16 8 -19 4z
m-26 -50 c-8 -15 -10 -15 -11 -2 0 17 10 32 18 25 2 -3 -1 -13 -7 -23z m-33
-33 l-14 -33 -12 27 c-11 24 -10 28 11 35 29 11 30 9 15 -29z m-151 -2 c-3 -7
-5 -2 -5 12 0 14 2 19 5 13 2 -7 2 -19 0 -25z m0 -42 c-3 -6 3 -20 12 -31 15
-19 15 -19 -4 -5 -36 27 -50 65 -20 53 9 -3 14 -11 12 -17z m23 -93 c13 -13
12 -14 -10 -8 -14 4 -32 14 -40 22 -13 13 -12 14 10 8 14 -4 32 -14 40 -22z"/>
<path d="M2685 540 c17 -7 15 -9 -12 -9 -22 -1 -36 -8 -43 -22 -7 -11 -9 -23
-7 -26 3 -2 10 5 17 16 14 27 50 27 85 -1 27 -21 28 -21 76 -4 61 22 83 16 77
-22 -3 -15 -9 -36 -13 -47 -8 -20 -8 -20 13 -1 37 33 27 77 -22 95 -23 9 -33
8 -56 -9 -37 -26 -41 -26 -75 10 -16 17 -36 30 -44 29 -12 0 -10 -3 4 -9z"/>
<path d="M2858 533 c6 -2 18 -2 25 0 6 3 1 5 -13 5 -14 0 -19 -2 -12 -5z"/>
<path d="M2906 517 c3 -10 9 -15 12 -12 3 3 0 11 -7 18 -10 9 -11 8 -5 -6z"/>
<path d="M2636 442 c-3 -6 -1 -14 5 -17 14 -9 20 -2 10 14 -6 8 -11 9 -15 3z"/>
<path d="M2590 426 c0 -2 8 -10 18 -17 15 -13 16 -12 3 4 -13 16 -21 21 -21
13z"/>
<path d="M2640 370 c14 -11 34 -25 45 -31 14 -7 12 -4 -5 11 -14 11 -34 25
-45 31 -14 7 -12 4 5 -11z"/>
<path d="M1213 358 c-27 -13 -29 -32 -7 -83 9 -21 24 -81 35 -134 11 -53 21
-103 23 -111 3 -8 5 -18 5 -22 1 -5 42 -8 91 -8 84 0 90 1 90 20 0 24 -27 79
-74 153 -18 29 -45 75 -60 104 -24 48 -62 94 -75 92 -3 0 -16 -5 -28 -11z"/>
<path d="M4236 259 c-10 -24 -44 -90 -77 -146 -32 -56 -59 -105 -59 -108 0 -3
33 -5 73 -5 l72 0 22 102 c19 91 19 104 6 125 -8 12 -12 27 -8 32 3 6 2 18 -3
27 -7 13 -12 7 -26 -27z"/>
</g>
</svg>
