<svg width="23" height="23" viewBox="0 0 23 23" fill="none" xmlns="http://www.w3.org/2000/svg">
<g clip-path="url(#clip0_1_381)">
<path d="M16.8263 0.998047H6.73608C3.45213 0.998047 0.780518 3.66949 0.780518 6.95324V17.043C0.780518 20.3266 3.45213 22.998 6.73608 22.998H16.8265C20.1102 22.998 22.7819 20.3266 22.7819 17.043V6.95324C22.7819 3.66949 20.1102 0.998047 16.8263 0.998047V0.998047ZM11.7812 18.0135C8.464 18.0135 5.76536 15.315 5.76536 11.998C5.76536 8.68105 8.464 5.98258 11.7812 5.98258C15.0984 5.98258 17.797 8.68105 17.797 11.998C17.797 15.315 15.0984 18.0135 11.7812 18.0135ZM17.9409 7.40122C16.9606 7.40122 16.1633 6.60395 16.1633 5.62372C16.1633 4.6435 16.9606 3.84606 17.9409 3.84606C18.9211 3.84606 19.7186 4.6435 19.7186 5.62372C19.7186 6.60395 18.9211 7.40122 17.9409 7.40122Z" fill="#242424"/>
<path d="M11.7812 7.27271C9.17538 7.27271 7.05518 9.39274 7.05518 11.9987C7.05518 14.6045 9.17538 16.7247 11.7812 16.7247C14.3872 16.7247 16.5072 14.6045 16.5072 11.9987C16.5072 9.39274 14.3872 7.27271 11.7812 7.27271Z" fill="#242424"/>
<path d="M17.9409 5.13623C17.672 5.13623 17.4531 5.35512 17.4531 5.62402C17.4531 5.89293 17.672 6.11181 17.9409 6.11181C18.21 6.11181 18.4289 5.8931 18.4289 5.62402C18.4289 5.35495 18.21 5.13623 17.9409 5.13623Z" fill="#242424"/>
</g>
<defs>
<clipPath id="clip0_1_381">
<rect width="22.0014" height="22" fill="white" transform="translate(0.780518 0.998047)"/>
</clipPath>
</defs>
</svg>
