<svg width="23" height="23" viewBox="0 0 23 23" fill="none" xmlns="http://www.w3.org/2000/svg">
<g clip-path="url(#clip0_1_385)">
<path d="M21.929 14.3332C23.5222 7.17405 17.25 0.670304 9.88412 1.9188C5.88537 -0.562612 0.561035 2.24147 0.561035 6.99897C0.561035 8.10539 0.866304 9.14122 1.39709 10.0341C-0.0834218 17.2097 6.24014 23.62 13.5996 22.2862C18.802 25.0371 24.5508 19.5509 21.929 14.3332ZM14.927 18.6507C12.9946 19.4455 9.81445 19.4501 7.89024 18.4426C5.14649 16.9796 4.65879 13.6861 7.02577 13.6861C8.80972 13.6861 8.24502 15.766 10.0464 16.6139C10.8733 16.9961 12.6508 17.0356 13.6839 16.3389C14.7043 15.656 14.6107 14.5816 14.0561 14.0683C12.5866 12.7116 8.38161 13.2506 6.45924 10.8756C5.6241 9.84522 5.46643 8.02747 6.49316 6.7093C8.2826 4.40664 13.5336 4.26639 15.7915 6.0053C17.8761 7.61864 17.3132 9.75997 15.6311 9.75997C13.6079 9.75997 14.6713 7.11264 11.405 7.11264C9.03707 7.11264 8.10567 8.79655 9.77319 9.61605C12.0338 10.739 17.7945 10.3641 17.7945 14.7521C17.7899 16.5781 16.6706 17.9394 14.927 18.6507Z" fill="#242424"/>
</g>
<defs>
<clipPath id="clip0_1_385">
<rect width="22.0014" height="22" fill="white" transform="translate(0.561035 0.998047)"/>
</clipPath>
</defs>
</svg>
