<svg width="23" height="23" viewBox="0 0 23 23" fill="none" xmlns="http://www.w3.org/2000/svg">
<g clip-path="url(#clip0_1_373)">
<path d="M22.1234 5.1768C21.3053 5.5357 20.4335 5.77359 19.5245 5.8891C20.4596 5.33081 21.1733 4.45351 21.5088 3.39607C20.637 3.91585 19.6744 4.283 18.6486 4.48789C17.8208 3.60646 16.641 3.06055 15.3539 3.06055C12.8567 3.06055 10.8464 5.08742 10.8464 7.5722C10.8464 7.92973 10.8766 8.2735 10.9509 8.60077C7.20101 8.41788 3.88293 6.62064 1.65392 3.88285C1.26477 4.55802 1.0365 5.33081 1.0365 6.16274C1.0365 7.72484 1.84093 9.10955 3.04 9.91122C2.31533 9.89747 1.60441 9.68709 1.00213 9.35569C1.00213 9.36944 1.00213 9.38732 1.00213 9.40519C1.00213 11.5971 2.5656 13.4177 4.61585 13.8371C4.2487 13.9375 3.84855 13.9856 3.43328 13.9856C3.14451 13.9856 2.85299 13.9691 2.57935 13.9086C3.16376 15.6948 4.82211 17.008 6.79399 17.0507C5.25939 18.2511 3.31089 18.9744 1.20151 18.9744C0.831615 18.9744 0.476842 18.9579 0.12207 18.9125C2.12007 20.201 4.48797 20.9367 7.0415 20.9367C15.3415 20.9367 19.8793 14.0612 19.8793 8.10161C19.8793 7.90222 19.8724 7.70971 19.8628 7.51858C20.758 6.88329 21.5102 6.08986 22.1234 5.1768Z" fill="#242424"/>
</g>
<defs>
<clipPath id="clip0_1_373">
<rect width="22.0014" height="22" fill="white" transform="translate(0.12207 0.998047)"/>
</clipPath>
</defs>
</svg>
