<svg width="188" height="37" viewBox="0 0 188 37" fill="none" xmlns="http://www.w3.org/2000/svg">
<g clip-path="url(#clip0_1_475)">
<path d="M41.403 26.418L43.6477 23.9267C45.4767 25.3331 47.7168 26.1 50.024 26.1097C52.8113 26.1097 54.4763 24.8764 54.4763 23.0634C54.4763 21.5217 53.5637 20.35 51.541 20.1034C50.5297 19.98 49.7403 19.8567 48.581 19.6964C44.6837 19.1784 42.5993 16.7117 42.5993 13.5297C42.5993 9.76804 45.288 7.11637 49.9253 7.11637C52.7127 7.11637 55.1793 8.07837 57.2267 9.39804L55.3273 12.1484C53.6699 11.0795 51.749 10.4904 49.7773 10.4464C47.6807 10.4464 46.0157 11.4947 46.0157 13.5914C46.0157 14.8247 46.9283 16.058 49.21 16.4034C49.802 16.4897 50.653 16.613 51.7383 16.7364C55.9317 17.2297 57.8927 20.0664 57.8927 23.0634C57.8927 27.0964 54.8217 29.4397 49.9993 29.4397C46.6693 29.4397 43.771 28.453 41.403 26.418ZM69.6217 29.2547V27.861H69.56C68.894 28.934 67.784 29.4274 65.6133 29.4274C62.0367 29.4274 59.9523 27.3677 59.9523 24.6544C59.9523 22.163 61.7283 20.0294 65.1693 20.0294H69.6217V18.4014C69.6217 16.9214 68.635 16.391 66.3287 16.391C64.6637 16.391 63.862 16.6994 63.307 17.5997L60.7787 15.7127C62.012 14.06 63.7757 13.4434 66.1807 13.4434C70.1273 13.4434 72.8407 14.7384 72.8407 18.5864V29.2424H69.6217V29.2547ZM77.2067 13.616V8.88004H80.4257V13.616H82.769V16.0334H80.4257V25.123C80.4257 25.9864 80.771 26.2947 81.5603 26.2947H82.7567V29.2547H81.0917C78.847 29.2547 77.2067 27.8734 77.2067 25.4067V16.0334H75.6033V13.6284H77.2067V13.616ZM84.9767 21.4354C84.9767 18.0684 85.4947 16.7734 86.7157 15.4537C87.3351 14.7884 88.0914 14.2653 88.9324 13.9204C89.7734 13.5755 90.6792 13.4169 91.5873 13.4557C92.4935 13.4187 93.3969 13.5782 94.2356 13.923C95.0744 14.2679 95.8286 14.7901 96.4467 15.4537C97.68 16.7734 98.1733 18.0684 98.1733 21.4354C98.1733 24.8147 97.68 26.122 96.4467 27.4417C95.8286 28.1054 95.0744 28.6275 94.2356 28.9724C93.3969 29.3172 92.4935 29.4767 91.5873 29.4397C90.6792 29.4785 89.7734 29.3199 88.9324 28.975C88.0914 28.6301 87.3351 28.107 86.7157 27.4417C85.4823 26.1097 84.989 24.8147 84.989 21.4354H84.9767ZM99.8013 26.64L102.046 24.4817C102.706 25.1449 103.496 25.6647 104.366 26.0085C105.236 26.3523 106.168 26.5127 107.103 26.4797C108.928 26.4797 110.26 25.8014 110.26 24.4817C110.26 23.3717 109.397 23.0387 108.299 22.94L105.462 22.6934C102.798 22.4837 100.837 20.942 100.837 18.2534C100.837 15.0837 103.427 13.4434 106.819 13.4434C109.631 13.4434 111.518 14.282 113.109 15.577L111.111 17.8587C109.873 16.9275 108.368 16.4175 106.819 16.4034C104.759 16.4034 104.069 17.205 104.069 18.2904C104.069 18.9687 104.562 19.647 106.178 19.7704L108.842 19.9554C112.159 20.165 113.479 22.1384 113.479 24.642C113.479 27.6884 110.568 29.452 106.844 29.452C104.254 29.452 101.861 28.5147 99.8013 26.64ZM116.747 29.267V7.3137H119.979V15.3057H120.04C121.052 14.0724 122.507 13.4557 124.209 13.4557C124.92 13.4489 125.625 13.5852 126.283 13.8564C126.94 14.1277 127.536 14.5283 128.035 15.0346C128.535 15.5409 128.927 16.1424 129.189 16.8034C129.452 17.4644 129.578 18.1714 129.562 18.8824V29.267H126.33V19.9554C126.33 17.834 124.974 16.6007 123.173 16.6007C121.335 16.6007 119.966 17.834 119.966 19.9554V29.267H116.76H116.747ZM133.817 7.3137H137.036V10.4587H133.817V7.3137ZM133.817 13.6407H137.036V29.23H133.817V13.6407ZM167.659 29.2547V27.8734H167.598C166.944 28.9464 165.834 29.4397 163.651 29.4397C160.074 29.4397 158.002 27.38 158.002 24.6667C158.002 22.1754 159.766 20.0417 163.207 20.0417H167.659V18.4137C167.659 16.9337 166.685 16.4034 164.379 16.4034C162.701 16.4034 161.912 16.7117 161.345 17.612L158.816 15.725C160.05 14.0724 161.826 13.4557 164.218 13.4557C168.165 13.4557 170.878 14.7507 170.878 18.5987V29.2547H167.672H167.659ZM178.315 28.6504L172.568 13.6407H175.984L179.771 24.5804H179.832L183.619 13.6407H187.035L180.153 32.5107C179.265 34.9157 177.588 35.594 175.627 35.594H174.554V32.634H175.503C176.33 32.634 177.107 32.2024 177.427 31.2774L178.315 28.6504ZM141.587 29.267V7.3137H149.739C151.515 7.3137 153.069 7.5357 154.796 8.85537C155.869 9.75711 156.633 10.9725 156.98 12.3307C157.328 13.689 157.241 15.1219 156.732 16.4282C156.223 17.7345 155.318 18.8485 154.143 19.6139C152.968 20.3793 151.584 20.7575 150.183 20.6954H145.003V29.267H141.587ZM145.003 10.4587V17.5504H150.06C152.588 17.5504 153.821 15.7374 153.821 14.0107C153.821 12.5307 153.217 11.6304 152.366 11.0754C151.601 10.582 150.911 10.4587 149.936 10.4587H145.003ZM167.647 23.7787V22.644H163.811C161.912 22.644 161.036 23.384 161.036 24.5187C161.036 25.5547 161.887 26.492 164.058 26.492C166.734 26.492 167.647 26.2084 167.647 23.7787ZM69.6217 23.7787V22.644H65.7613C63.8743 22.644 62.9863 23.384 62.9863 24.5187C62.9863 25.5547 63.8497 26.492 66.0203 26.492C68.709 26.492 69.6217 26.2084 69.6217 23.7787ZM94.9667 21.46C94.9667 19.1784 94.7817 18.5617 94.1773 17.723C93.857 17.3534 93.4583 17.0598 93.0103 16.8636C92.5623 16.6673 92.0762 16.5733 91.5873 16.5884C90.4773 16.5884 89.466 17.0817 88.9973 17.723C88.393 18.5617 88.208 19.1784 88.208 21.423C88.208 23.7047 88.393 24.3214 88.9973 25.16C89.466 25.8014 90.4773 26.2947 91.5873 26.2947C92.6973 26.2947 93.7087 25.8014 94.1773 25.16C94.7817 24.3214 94.9667 23.7047 94.9667 21.46ZM18.5617 3.88454e-05C28.5147 3.88454e-05 36.6423 7.7947 37.1233 17.575H28.7367C28.4876 15.0493 27.3081 12.7065 25.4275 11.0021C23.5469 9.29783 21.0997 8.35388 18.5617 8.35388C16.0237 8.35388 13.5764 9.29783 11.6958 11.0021C9.8152 12.7065 8.63569 15.0493 8.38667 17.575H0C0.249884 12.8241 2.31564 8.35084 5.77025 5.07987C9.22486 1.80889 13.8042 -0.00969143 18.5617 3.88454e-05ZM37.1233 19.425C36.8735 24.1759 34.8077 28.6492 31.3531 31.9202C27.8985 35.1912 23.3191 37.0098 18.5617 37C13.8042 37.0098 9.22486 35.1912 5.77025 31.9202C2.31564 28.6492 0.249884 24.1759 0 19.425H8.38667C8.63569 21.9508 9.8152 24.2936 11.6958 25.9979C13.5764 27.7022 16.0237 28.6462 18.5617 28.6462C21.0997 28.6462 23.5469 27.7022 25.4275 25.9979C27.3081 24.2936 28.4876 21.9508 28.7367 19.425H37.1233ZM18.5617 10.175C19.6549 10.175 20.7375 10.3904 21.7475 10.8087C22.7575 11.2271 23.6753 11.8403 24.4483 12.6134C25.2214 13.3864 25.8346 14.3042 26.253 15.3142C26.6713 16.3242 26.8867 17.4068 26.8867 18.5C26.8867 19.5933 26.6713 20.6758 26.253 21.6859C25.8346 22.6959 25.2214 23.6137 24.4483 24.3867C23.6753 25.1597 22.7575 25.773 21.7475 26.1913C20.7375 26.6097 19.6549 26.825 18.5617 26.825C17.4684 26.825 16.3859 26.6097 15.3758 26.1913C14.3658 25.773 13.4481 25.1597 12.675 24.3867C11.902 23.6137 11.2887 22.6959 10.8704 21.6859C10.452 20.6758 10.2367 19.5933 10.2367 18.5C10.2367 17.4068 10.452 16.3242 10.8704 15.3142C11.2887 14.3042 11.902 13.3864 12.675 12.6134C13.4481 11.8403 14.3658 11.2271 15.3758 10.8087C16.3859 10.3904 17.4684 10.175 18.5617 10.175Z" fill="#818CB9"/>
</g>
<defs>
<clipPath id="clip0_1_475">
<rect width="187.467" height="37" fill="white"/>
</clipPath>
</defs>
</svg>
