<svg width="208" height="50" viewBox="0 0 208 50" fill="none" xmlns="http://www.w3.org/2000/svg">
<path d="M11.3565 10.48L11.1084 11.3484V36.5476L11.3565 36.8026L22.7129 29.8884L11.3565 10.48Z" fill="#818CB9"/>
<path d="M11.3565 10.48L0 29.8884L11.3565 36.8026V24.5717V10.48Z" fill="#818CB9"/>
<path d="M11.3563 39.0174L11.2166 39.1929V48.1694L11.3563 48.5899L22.7196 32.1067L11.3563 39.0174Z" fill="#EF40C2"/>
<path d="M11.3565 48.5897V39.0171L0 32.1064L11.3565 48.5897Z" fill="#818CB9"/>
<path d="M11.3564 36.8027L22.7128 29.8886L11.3564 24.5719V36.8027Z" fill="#818CB9"/>
<path d="M0 29.8886L11.3563 36.8028V24.5719L0 29.8886Z" fill="#818CB9"/>
<path d="M51.1029 17.398V23.437H59.3529V27.001H51.1029V33.271H60.3429V37H46.4499V13.702H60.3429V17.398H51.1029ZM73.5558 33.007V37H71.1138C69.0678 37 67.4948 36.505 66.3948 35.515C65.3168 34.525 64.7778 32.875 64.7778 30.565V22.645H62.2368V18.718H64.7778V14.197H69.4308V18.718H73.5228V22.645H69.4308V30.631C69.4308 31.511 69.6068 32.127 69.9588 32.479C70.3108 32.831 70.9048 33.007 71.7408 33.007H73.5558ZM87.794 18.454C89.906 18.454 91.589 19.147 92.843 20.533C94.097 21.919 94.724 23.866 94.724 26.374V37H90.104V26.902C90.104 25.45 89.73 24.328 88.982 23.536C88.234 22.722 87.211 22.315 85.913 22.315C84.593 22.315 83.537 22.744 82.745 23.602C81.953 24.46 81.557 25.692 81.557 27.298V37H76.904V12.58H81.557V22.381C82.041 21.149 82.833 20.192 83.933 19.51C85.055 18.806 86.342 18.454 87.794 18.454ZM116.011 27.166C116.011 27.628 115.956 28.156 115.846 28.75H102.448C102.514 30.378 102.954 31.577 103.768 32.347C104.582 33.117 105.594 33.502 106.804 33.502C107.882 33.502 108.773 33.238 109.477 32.71C110.203 32.182 110.665 31.467 110.863 30.565H115.78C115.538 31.841 115.021 32.985 114.229 33.997C113.437 35.009 112.414 35.801 111.16 36.373C109.928 36.945 108.553 37.231 107.035 37.231C105.253 37.231 103.669 36.857 102.283 36.109C100.897 35.339 99.8191 34.25 99.0491 32.842C98.2791 31.434 97.8941 29.773 97.8941 27.859C97.8941 25.945 98.2791 24.284 99.0491 22.876C99.8191 21.446 100.897 20.357 102.283 19.609C103.669 18.861 105.253 18.487 107.035 18.487C108.839 18.487 110.412 18.861 111.754 19.609C113.118 20.357 114.163 21.391 114.889 22.711C115.637 24.009 116.011 25.494 116.011 27.166ZM111.325 26.704C111.391 25.208 110.995 24.075 110.137 23.305C109.301 22.535 108.267 22.15 107.035 22.15C105.781 22.15 104.725 22.535 103.867 23.305C103.009 24.075 102.536 25.208 102.448 26.704H111.325ZM123.967 22.216C124.649 21.05 125.551 20.137 126.673 19.477C127.795 18.795 129.049 18.454 130.435 18.454V23.437H129.082C125.672 23.437 123.967 25.021 123.967 28.189V37H119.314V18.718H123.967V22.216ZM150.203 27.166C150.203 27.628 150.148 28.156 150.038 28.75H136.64C136.706 30.378 137.146 31.577 137.96 32.347C138.774 33.117 139.786 33.502 140.996 33.502C142.074 33.502 142.965 33.238 143.669 32.71C144.395 32.182 144.857 31.467 145.055 30.565H149.972C149.73 31.841 149.213 32.985 148.421 33.997C147.629 35.009 146.606 35.801 145.352 36.373C144.12 36.945 142.745 37.231 141.227 37.231C139.445 37.231 137.861 36.857 136.475 36.109C135.089 35.339 134.011 34.25 133.241 32.842C132.471 31.434 132.086 29.773 132.086 27.859C132.086 25.945 132.471 24.284 133.241 22.876C134.011 21.446 135.089 20.357 136.475 19.609C137.861 18.861 139.445 18.487 141.227 18.487C143.031 18.487 144.604 18.861 145.946 19.609C147.31 20.357 148.355 21.391 149.081 22.711C149.829 24.009 150.203 25.494 150.203 27.166ZM145.517 26.704C145.583 25.208 145.187 24.075 144.329 23.305C143.493 22.535 142.459 22.15 141.227 22.15C139.973 22.15 138.917 22.535 138.059 23.305C137.201 24.075 136.728 25.208 136.64 26.704H145.517ZM170.997 18.718V37H166.344V33.304C165.86 34.536 165.057 35.504 163.935 36.208C162.835 36.89 161.559 37.231 160.107 37.231C157.995 37.231 156.312 36.538 155.058 35.152C153.804 33.766 153.177 31.83 153.177 29.344V18.718H157.797V28.816C157.797 30.268 158.171 31.401 158.919 32.215C159.667 33.007 160.679 33.403 161.955 33.403C163.297 33.403 164.364 32.974 165.156 32.116C165.948 31.258 166.344 30.026 166.344 28.42V18.718H170.997ZM198.492 18.454C200.714 18.454 202.463 19.147 203.739 20.533C205.037 21.897 205.686 23.844 205.686 26.374V37H201.066V26.902C201.066 25.494 200.703 24.416 199.977 23.668C199.273 22.898 198.294 22.513 197.04 22.513C195.742 22.513 194.708 22.92 193.938 23.734C193.168 24.548 192.783 25.736 192.783 27.298V37H188.163V26.902C188.163 25.494 187.8 24.416 187.074 23.668C186.37 22.898 185.391 22.513 184.137 22.513C182.839 22.513 181.805 22.92 181.035 23.734C180.265 24.548 179.88 25.736 179.88 27.298V37H175.227V18.718H179.88V22.183C180.364 20.995 181.123 20.082 182.157 19.444C183.213 18.784 184.434 18.454 185.82 18.454C187.294 18.454 188.57 18.806 189.648 19.51C190.748 20.214 191.573 21.226 192.123 22.546C192.695 21.292 193.542 20.302 194.664 19.576C195.808 18.828 197.084 18.454 198.492 18.454Z" fill="#818CB9"/>
</svg>
