<svg width="184" height="33" viewBox="0 0 184 33" fill="none" xmlns="http://www.w3.org/2000/svg">
<path d="M37.0066 9.21298C30.3457 9.21298 25.141 14.3075 25.141 21.1274C25.141 27.9474 30.2141 32.9983 37.0066 32.9983C43.7991 32.9983 48.9604 27.8603 48.9604 21.0839C48.9604 14.351 43.8874 9.21298 37.0066 9.21298ZM37.0516 28.0833C33.2584 28.0833 30.4788 25.1152 30.4788 21.1291C30.4788 17.0978 33.2134 14.1314 37.0066 14.1314C40.8448 14.1314 43.6227 17.1431 43.6227 21.1291C43.6227 25.1152 40.8448 28.0833 37.0516 28.0833ZM50.4152 14.3963H53.7238V32.5573H59.0167V9.6557H50.4152V14.3963ZM11.8207 14.1297C14.6003 14.1297 16.8056 15.8569 17.6428 18.4259H23.2452C22.23 12.934 17.731 9.21298 11.8656 9.21298C5.20462 9.21298 0 14.3075 0 21.1291C0 27.9508 5.07314 33 11.8656 33C17.5995 33 22.1867 29.2789 23.2019 23.7417H17.6428C16.8489 26.3108 14.6435 28.0833 11.864 28.0833C8.02582 28.0833 5.33609 25.1152 5.33609 21.1291C5.33778 17.0978 7.98421 14.1297 11.8207 14.1297ZM150.982 18.9139L147.101 18.3387C145.249 18.0738 143.925 17.4533 143.925 15.9911C143.925 14.3963 145.647 13.5998 147.983 13.5998C150.542 13.5998 152.174 14.7066 152.527 16.5226H157.644C157.069 11.9161 153.541 9.21463 148.116 9.21463C142.514 9.21463 138.809 12.0939 138.809 16.1688C138.809 20.066 141.235 22.3265 146.131 23.0341L150.012 23.6093C151.91 23.8742 152.968 24.6288 152.968 26.0458C152.968 27.862 151.116 28.6149 148.558 28.6149C145.425 28.6149 143.661 27.3303 143.396 25.3818H138.191C138.678 29.8558 142.161 33 148.512 33C154.292 33 158.128 30.3421 158.128 25.7792C158.128 21.7043 155.35 19.578 150.982 18.9139ZM56.3702 0.221353C54.4296 0.221353 52.9735 1.63835 52.9735 3.58692C52.9735 5.53549 54.428 6.95248 56.3702 6.95248C58.3109 6.95248 59.7674 5.53549 59.7674 3.58692C59.7674 1.63835 58.3109 0.221353 56.3702 0.221353ZM134.045 17.4969C134.045 12.5366 131.046 9.21463 124.695 9.21463C118.696 9.21463 115.344 12.2717 114.682 16.967H119.931C120.196 15.1509 121.607 13.645 124.607 13.645C127.298 13.645 128.621 14.8407 128.621 16.303C128.621 18.208 126.194 18.6942 123.195 19.0045C119.137 19.4472 114.109 20.8641 114.109 26.18C114.109 30.3002 117.153 32.9564 122.005 32.9564C125.798 32.9564 128.18 31.3617 129.372 28.8362C129.548 31.095 131.224 32.5573 133.563 32.5573H136.65V27.8183H134.047V17.4969H134.045ZM128.841 23.2555C128.841 26.3124 126.194 28.5712 122.974 28.5712C120.988 28.5712 119.312 27.7294 119.312 25.9586C119.312 23.6998 122.003 23.0794 124.474 22.8144C126.855 22.5931 128.178 22.0615 128.841 21.0419V23.2555ZM100.744 9.21298C97.7877 9.21298 95.3179 10.4539 93.5537 12.5349V0H88.2609V32.5573H93.4652V29.5456C95.2293 31.7155 97.7447 33 100.744 33C107.095 33 111.904 27.9508 111.904 21.1291C111.904 14.3075 107.007 9.21298 100.744 9.21298ZM99.95 28.0833C96.1567 28.0833 93.3772 25.1152 93.3772 21.1291C93.3772 17.1431 96.2002 14.1314 99.993 14.1314C103.831 14.1314 106.521 17.0995 106.521 21.1291C106.521 25.1152 103.743 28.0833 99.95 28.0833ZM75.6009 9.21298C72.1607 9.21298 69.9104 10.63 68.5875 12.6238V9.6557H63.3376V32.5556H68.6305V20.1096C68.6305 16.6098 70.8357 14.1297 74.0999 14.1297C77.144 14.1297 79.0396 16.2996 79.0396 19.4455V32.5573H84.3325V19.0481C84.3345 13.2879 81.38 9.21298 75.6009 9.21298ZM183.359 20.3762C183.359 13.8211 178.595 9.21463 172.199 9.21463C165.406 9.21463 160.422 14.3527 160.422 21.1291C160.422 28.261 165.759 33 172.287 33C177.801 33 182.124 29.7217 183.226 25.0715H177.711C176.917 27.109 174.977 28.261 172.374 28.261C168.977 28.261 166.418 26.1347 165.846 22.4137H183.357V20.3762H183.359ZM166.155 18.6037C166.994 15.4142 169.376 13.8647 172.111 13.8647C175.11 13.8647 177.404 15.5919 177.933 18.6037H166.155Z" fill="#818CB9"/>
</svg>
