<svg width="307" height="38" viewBox="0 0 307 38" fill="none" xmlns="http://www.w3.org/2000/svg">
<path d="M2.89966 13.8372L1.35349 15.543C0.925535 15.9966 0.585057 16.5408 0.352471 17.1432C0.119886 17.7455 0 18.3935 0 19.0482C0 19.7029 0.119886 20.3509 0.352471 20.9532C0.585057 21.5555 0.925535 22.0999 1.35349 22.5534L13.8097 36.4317C14.105 36.7649 14.4486 37.0414 14.8264 37.2496V20.4269L2.89966 13.8372Z" fill="#3D89F5"/>
<path d="M30.9892 13.8372L32.5354 15.543C32.9634 15.9966 33.3038 16.5408 33.5365 17.1432C33.769 17.7455 33.8889 18.3935 33.8889 19.0482C33.8889 19.7029 33.769 20.3509 33.5365 20.9532C33.3038 21.5555 32.9634 22.0999 32.5354 22.5534L20.0792 36.4317C19.7839 36.7649 19.4403 37.0414 19.0625 37.2496V20.4269L30.9892 13.8372Z" fill="#818CB9"/>
<path d="M27.9986 10.3553L20.2041 1.73252C19.7915 1.26331 19.2977 0.890255 18.7519 0.635512C18.2062 0.38077 17.6196 0.249512 17.027 0.249512C16.4345 0.249512 15.8478 0.38077 15.3022 0.635512C14.7564 0.890255 14.2626 1.26331 13.85 1.73252L6.0343 10.3553L16.9847 16.3843L27.9986 10.3553Z" fill="#85B5F8"/>
<path d="M47.4166 32.7703H58.3855C64.152 32.7703 67.2233 29.451 67.2233 24.9423C67.2233 20.7516 64.503 18.2206 61.5821 18.0685V17.7919C64.2523 17.128 66.2204 15.0396 66.2204 11.7065C66.2204 7.46052 63.3622 4.4455 57.6961 4.4455H47.4166V32.7703ZM52.8446 27.8743V20.3505H57.3952C60.0026 20.3505 61.6198 22.0102 61.6198 24.3476C61.6198 26.4775 60.3035 27.8743 57.2698 27.8743H52.8446ZM52.8446 16.2982V9.28619H56.9689C59.3758 9.28619 60.7423 10.6554 60.7423 12.7023C60.7423 14.9428 59.0876 16.2982 56.8687 16.2982H52.8446ZM75.1127 4.4455H69.7725V32.7703H75.1127V4.4455ZM87.2082 33.1853C93.0499 33.1853 96.6851 28.7733 96.6851 22.2315C96.6851 15.6482 93.0499 11.2501 87.2082 11.2501C81.3659 11.2501 77.7306 15.6482 77.7306 22.2315C77.7306 28.7733 81.3659 33.1853 87.2082 33.1853ZM87.233 28.6212C84.5381 28.6212 83.1592 25.8966 83.1592 22.19C83.1592 18.4834 84.5381 15.745 87.233 15.745C89.8784 15.745 91.2573 18.4834 91.2573 22.19C91.2573 25.8966 89.8784 28.6212 87.233 28.6212ZM107.975 33.1853C113.102 33.1853 116.324 29.8659 116.574 24.9838H111.535C111.221 27.252 109.868 28.5244 108.037 28.5244C105.543 28.5244 103.926 26.2147 103.926 22.1485C103.926 18.1377 105.556 15.8418 108.037 15.8418C109.993 15.8418 111.247 17.2664 111.535 19.3824H116.574C116.348 14.4726 112.977 11.2501 107.95 11.2501C102.108 11.2501 98.4975 15.7173 98.4975 22.2315C98.4975 28.6904 102.045 33.1853 107.975 33.1853ZM119.111 32.7703H124.451V26.021L125.893 24.2092L131.145 32.7703H137.401L129.892 20.724L137.038 11.5267H130.907L124.74 19.5898H124.451V4.4455H119.111V32.7703ZM146.682 33.1853C151.809 33.1853 155.031 29.8659 155.281 24.9838H150.242C149.929 27.252 148.575 28.5244 146.745 28.5244C144.25 28.5244 142.633 26.2147 142.633 22.1485C142.633 18.1377 144.262 15.8418 146.745 15.8418C148.7 15.8418 149.954 17.2664 150.242 19.3824H155.281C155.056 14.4726 151.683 11.2501 146.657 11.2501C140.815 11.2501 137.205 15.7173 137.205 22.2315C137.205 28.6904 140.752 33.1853 146.682 33.1853ZM163.158 20.4889C163.171 17.7504 164.688 16.1461 166.869 16.1461C169.037 16.1461 170.317 17.6813 170.304 20.2952V32.7703H175.644V19.2441C175.656 14.2651 172.999 11.2501 168.987 11.2501C166.066 11.2501 164.111 12.7714 163.234 15.2748H163.008V4.4455H157.818V32.7703H163.158V20.4889ZM184.455 33.1714C187.301 33.1714 189.143 31.8022 190.084 29.8244H190.234V32.7703H195.298V18.4419C195.298 13.3799 191.412 11.2501 187.125 11.2501C182.512 11.2501 179.478 13.6843 178.739 17.5568L183.677 17.9993C184.041 16.5887 185.182 15.5514 187.1 15.5514C188.917 15.5514 189.958 16.561 189.958 18.3037V18.3866C189.958 19.7558 188.642 19.9356 185.295 20.2952C181.484 20.6825 178.062 22.0932 178.062 26.837C178.062 31.0415 180.782 33.1714 184.455 33.1714ZM185.984 29.1052C184.342 29.1052 183.163 28.2616 183.163 26.6434C183.163 24.9838 184.405 24.1678 186.285 23.8773C187.451 23.6975 189.357 23.3932 189.996 22.9231V25.1774C189.996 27.4041 188.329 29.1052 185.984 29.1052ZM198.559 32.7703H203.899V11.5267H198.559V32.7703ZM201.242 8.78821C202.834 8.78821 204.137 7.44666 204.137 5.80085C204.137 4.16883 202.834 2.82727 201.242 2.82727C199.662 2.82727 198.358 4.16883 198.358 5.80085C198.358 7.44666 199.662 8.78821 201.242 8.78821ZM212.635 20.4889C212.647 17.7504 214.127 16.1461 216.283 16.1461C218.426 16.1461 219.718 17.6951 219.705 20.2952V32.7703H225.045V19.2441C225.045 14.2928 222.413 11.2501 218.402 11.2501C215.544 11.2501 213.475 12.7991 212.61 15.2748H212.384V11.5267H207.294V32.7703H212.635V20.4889Z" fill="#818CB9"/>
<path d="M231.493 33.13C233.098 33.13 234.49 31.6502 234.502 29.8107C234.49 27.9989 233.098 26.5191 231.493 26.5191C229.838 26.5191 228.472 27.9989 228.485 29.8107C228.472 31.6502 229.838 33.13 231.493 33.13ZM246.704 33.1854C251.831 33.1854 255.052 29.8661 255.303 24.9839H250.264C249.951 27.2521 248.597 28.5245 246.767 28.5245C244.272 28.5245 242.655 26.2148 242.655 22.1486C242.655 18.1378 244.284 15.8419 246.767 15.8419C248.722 15.8419 249.975 17.2665 250.264 19.3825H255.303C255.078 14.4727 251.705 11.2502 246.678 11.2502C240.837 11.2502 237.227 15.7174 237.227 22.2316C237.227 28.6905 240.774 33.1854 246.704 33.1854ZM266.54 33.1854C272.382 33.1854 276.017 28.7734 276.017 22.2316C276.017 15.6483 272.382 11.2502 266.54 11.2502C260.698 11.2502 257.063 15.6483 257.063 22.2316C257.063 28.7734 260.698 33.1854 266.54 33.1854ZM266.565 28.6213C263.87 28.6213 262.49 25.8967 262.49 22.1901C262.49 18.4836 263.87 15.7452 266.565 15.7452C269.21 15.7452 270.589 18.4836 270.589 22.1901C270.589 25.8967 269.21 28.6213 266.565 28.6213ZM278.607 32.7705H283.947V20.0188C283.947 17.6676 285.301 16.1047 287.081 16.1047C288.836 16.1047 290.015 17.4324 290.015 19.5209V32.7705H295.192V19.7975C295.192 17.5984 296.333 16.1047 298.276 16.1047C299.981 16.1047 301.259 17.2803 301.259 19.6454V32.7705H306.587V18.4836C306.587 13.878 304.105 11.2502 300.519 11.2502C297.699 11.2502 295.505 12.8407 294.715 15.2749H294.515C293.901 12.8131 291.932 11.2502 289.287 11.2502C286.693 11.2502 284.724 12.7716 283.922 15.2749H283.696V11.5268H278.607V32.7705Z" fill="#818CB9"/>
</svg>
