<svg width="41" height="41" viewBox="0 0 41 41" fill="none" xmlns="http://www.w3.org/2000/svg">
<path d="M28.2194 7.72754C25.4178 7.72754 22.7141 8.64325 20.5001 10.3233C18.2858 8.64317 15.5822 7.72754 12.7805 7.72754C5.73335 7.72754 0 13.4605 0 20.5072C0 27.554 5.73335 33.2869 12.7805 33.2869C15.5822 33.2869 18.2859 32.3712 20.5001 30.6911C22.7141 32.3712 25.4178 33.2869 28.2194 33.2869C35.2666 33.2869 41 27.554 41 20.5072C41 13.4605 35.2666 7.72754 28.2194 7.72754ZM20.5 13.5743C20.8958 14.0155 21.254 14.4903 21.5694 14.9914H19.4305C19.7459 14.4904 20.1041 14.0154 20.5 13.5743ZM18.3175 17.3936H22.6825C22.8787 18.0168 23.0148 18.6558 23.0896 19.3061H17.9103C17.9851 18.6558 18.1212 18.0169 18.3175 17.3936ZM17.9103 21.7083H23.0896C23.0148 22.3586 22.8787 22.9976 22.6825 23.6208H18.3175C18.1212 22.9976 17.9851 22.3586 17.9103 21.7083ZM20.5001 27.4403C20.1042 26.999 19.746 26.5241 19.4305 26.023H21.5695C21.254 26.5241 20.8959 26.9989 20.5001 27.4403ZM28.2194 30.8847C26.0897 30.8847 24.0296 30.2337 22.3004 29.0315C23.2912 27.9236 24.0901 26.6438 24.6424 25.2699C25.2518 23.7542 25.5609 22.1517 25.5609 20.5072C25.5609 18.8627 25.2519 17.2602 24.6424 15.7445C24.0902 14.3707 23.2912 13.0908 22.3004 11.9829C24.0296 10.7807 26.0897 10.1297 28.2194 10.1297C33.9421 10.1297 38.5977 14.785 38.5977 20.5072C38.5977 26.2294 33.9421 30.8847 28.2194 30.8847Z" fill="#242424"/>
</svg>
