<svg width="56" height="56" viewBox="0 0 56 56" fill="none" xmlns="http://www.w3.org/2000/svg">
<g clip-path="url(#clip0_1_397)">
<path d="M14.5118 26.481C13.9361 26.4024 13.3638 26.2648 12.787 26.2324C11.6575 26.1688 10.5685 26.3677 9.6182 27.0162C8.10375 28.0498 7.47948 29.5353 7.55231 31.3283C7.58584 32.1815 7.91994 32.9064 8.73381 33.2809C9.55693 33.6578 10.3696 33.5341 11.0795 32.9838C11.4217 32.7191 11.691 32.3642 12.0321 32.0081C12.0089 32.3642 11.9962 32.7029 11.965 33.0393C11.9442 33.2497 12.0159 33.3306 12.2321 33.3226C12.6517 33.3087 13.0748 33.3087 13.4945 33.3226C13.7222 33.3306 13.7743 33.2474 13.7893 33.0254C13.8355 32.3018 13.8702 31.5734 13.9881 30.859C14.2089 29.518 14.4818 28.1827 14.7373 26.844C14.7754 26.6428 14.7442 26.5145 14.5118 26.481ZM11.6113 31.0879C11.4899 31.2763 11.3292 31.4497 11.1569 31.5942C10.8737 31.8382 10.5396 31.9422 10.172 31.7954C9.80664 31.6486 9.67485 31.3168 9.65288 30.9665C9.57774 29.8359 9.96964 28.8821 10.8378 28.1515C11.2991 27.7631 11.8482 27.637 12.5049 27.8197C12.2714 28.9445 12.2552 30.1006 11.6113 31.0879Z" fill="#242424"/>
<path d="M35.1503 19.3668C34.2173 17.7646 32.0774 18.175 32.0774 18.175C31.9075 18.2132 31.7341 18.2548 31.5618 18.2871C30.5213 18.4814 29.541 18.8386 28.6023 19.3148C26.5618 20.3483 24.7352 21.6835 23.0936 23.2625C22.0023 24.3122 20.9422 25.3988 19.9202 26.519C18.126 28.4876 16.5896 30.6493 15.3618 33.0203C14.7294 34.2398 14.1653 35.4952 13.9052 36.8605C13.8566 37.1113 13.9375 37.4003 14.0185 37.6546C14.0531 37.754 14.2381 37.8315 14.3676 37.8719C14.4023 37.8812 14.5075 37.7147 14.5537 37.6165C14.8531 36.9668 15.089 36.2802 15.4555 35.6733C16.1872 34.456 16.9526 33.2549 17.7722 32.0966C19.0867 30.2343 20.593 28.5281 22.2046 26.9143C23.7271 25.3884 25.2855 23.9018 27.2069 22.873C28.089 22.4002 28.9838 21.9412 29.9098 21.5621C31.5017 20.9055 33.1607 20.4604 34.8705 20.2061C35.0508 20.1807 35.2971 20.0362 35.356 19.8859C35.4057 19.7564 35.1503 19.3668 35.1503 19.3668Z" fill="#242424"/>
<path d="M7.79306 25.83C7.66243 24.9156 6.89364 24.1399 5.78613 23.867C4.51792 23.5537 3.24624 23.6832 1.97572 23.8751C1.80809 23.9006 1.76069 24.0127 1.73064 24.1745C1.24509 26.7421 0.750289 29.3074 0.261272 31.8739C0.172254 32.3375 0.0924855 32.8057 0 33.3166C0.649711 33.3166 1.2578 33.3213 1.86474 33.3062C1.91329 33.3039 1.98497 33.1756 1.99884 33.0958C2.19538 32.1062 2.3896 31.112 2.56994 30.1201C2.60462 29.9282 2.6659 29.8739 2.86936 29.8935C3.73179 29.971 4.58035 29.912 5.41272 29.6346C6.99653 29.1132 8.0578 27.6543 7.79306 25.83ZM5.65202 27.2103C5.33873 27.8797 4.76879 28.1976 4.06705 28.2728C3.7052 28.3121 3.33526 28.2808 2.92023 28.2808C3.10867 27.2797 3.27399 26.3919 3.44855 25.5063C3.46243 25.4404 3.54451 25.3491 3.60462 25.3398C4.09827 25.2739 4.59422 25.237 5.07514 25.4092C5.7526 25.6474 6.00925 26.452 5.65202 27.2103Z" fill="#242424"/>
<path d="M17.8223 23.8099C17.6373 22.2376 16.9599 20.8977 15.8824 19.7555C15.7576 19.6214 15.5761 19.5231 15.4027 19.4596C15.2235 19.3948 15.1056 19.4966 15.1229 19.7012C15.1379 19.8804 15.1541 20.0619 15.1853 20.2399C15.4038 21.4758 15.6154 22.7139 15.8501 23.9486C16.0339 24.9128 16.235 25.8746 16.4535 26.8319C16.5252 27.1417 16.6501 27.4469 16.798 27.7301C16.9102 27.9463 17.072 27.929 17.2223 27.7313C17.2859 27.6492 17.3553 27.5648 17.3888 27.47C17.7125 26.5833 17.8801 25.6677 17.8998 24.722C17.8743 24.418 17.8581 24.1128 17.8223 23.8099Z" fill="#242424"/>
<path d="M53.3728 27.7664C53.4133 27.3155 53.4468 26.8635 53.485 26.3814C52.9277 26.3814 52.4087 26.3745 51.8977 26.3907C51.8376 26.393 51.7358 26.519 51.7312 26.5918C51.5867 28.3826 51.2225 30.1387 50.8711 31.897C50.7821 32.3525 50.7023 32.8092 50.6133 33.3109C51.2803 33.3109 51.9058 33.3156 52.5335 33.3017C52.5809 33.3005 52.6503 33.1687 52.6665 33.0913C52.863 32.1317 53.0144 31.1583 53.2468 30.2057C53.5809 28.8369 54.1451 28.3629 55.4815 28.1872C55.5404 28.1791 55.6283 28.1167 55.6399 28.0681C55.7659 27.4739 55.8792 26.8797 56.0052 26.2369C54.7162 26.1028 53.9971 26.845 53.3728 27.7664Z" fill="#242424"/>
<path d="M49.2913 30.1535C50.1375 29.7581 50.5468 29.0841 50.4924 28.1916C50.4358 27.2772 49.9549 26.6275 49.052 26.3777C47.5768 25.9708 46.2855 26.365 45.2473 27.4691C44.2785 28.4968 43.9225 29.7546 44.0913 31.143C44.2219 32.2309 44.7953 33.0228 45.8855 33.3211C47.0982 33.6517 48.2878 33.4899 49.4381 33.017C49.5167 32.9858 49.6069 32.8517 49.6046 32.7708C49.5826 32.3592 49.5329 31.9442 49.4878 31.506C49.3468 31.5604 49.2393 31.6008 49.1329 31.6367C48.4959 31.8702 47.8416 31.9708 47.1641 31.8899C46.4392 31.802 45.9606 31.291 46.0277 30.624C46.2288 30.624 46.4184 30.6286 46.608 30.624C47.5271 30.6032 48.4416 30.5488 49.2913 30.1535ZM48.1098 27.7211C48.3699 27.7928 48.5641 27.9292 48.6023 28.2113C48.6427 28.5142 48.519 28.7546 48.2497 28.8691C48.0011 28.98 47.7306 29.061 47.4589 29.0968C47.0566 29.1511 46.6485 29.1558 46.2173 29.1835C46.3075 28.2344 47.3028 27.5003 48.1098 27.7211Z" fill="#242424"/>
<path d="M36.4826 27.6772C36.3994 26.9257 35.893 26.3859 35.1589 26.261C34.2699 26.1153 33.5 26.3743 32.8306 26.9581C32.648 27.1165 32.4757 27.2876 32.2769 27.4737C32.3046 27.1096 32.3335 26.7581 32.3613 26.3928C31.767 26.3928 31.2145 26.3928 30.6399 26.3928C30.2145 28.6968 29.796 30.9812 29.3671 33.313C30.0295 33.313 30.6272 33.3211 31.2283 33.3026C31.2954 33.3003 31.3994 33.1628 31.4156 33.0749C31.5647 32.3292 31.7 31.5766 31.8306 30.8298C31.9532 30.1396 32.0746 29.4541 32.4295 28.8379C32.6688 28.4171 32.9601 28.0402 33.4503 27.8841C33.9532 27.7234 34.3323 27.9662 34.3913 28.4853C34.4098 28.6356 34.4202 28.7928 34.3959 28.9419C34.256 29.8171 34.1046 30.6911 33.9508 31.5627C33.8503 32.1327 33.7393 32.7015 33.6329 33.2645C33.6873 33.2899 33.7139 33.3107 33.7393 33.3107C34.3219 33.3154 34.9058 33.3269 35.4884 33.3107C35.5555 33.3084 35.656 33.1755 35.6757 33.0911C35.8745 32.1096 36.0595 31.1292 36.2456 30.1442C36.4029 29.3315 36.5751 28.5177 36.4826 27.6772Z" fill="#242424"/>
<path d="M40.5884 30.6033C41.2867 30.5628 41.9722 30.4438 42.6069 30.1293C43.4173 29.7212 43.7988 29.0541 43.7387 28.1778C43.674 27.2888 43.193 26.6472 42.3329 26.3917C41.0462 26.0079 39.859 26.2772 38.8474 27.1385C37.6197 28.1836 37.1584 29.5675 37.3318 31.1444C37.4555 32.2588 38.0659 33.0577 39.1792 33.3444C40.3734 33.6531 41.548 33.4912 42.6809 33.0276C42.7572 32.9976 42.8497 32.8635 42.8485 32.7837C42.8254 32.3698 42.7769 31.9559 42.7376 31.5455C42.6878 31.5455 42.667 31.5409 42.652 31.5467C42.5792 31.5709 42.5075 31.5998 42.4347 31.6253C41.785 31.875 41.1098 31.986 40.4139 31.8993C39.6937 31.8114 39.2174 31.312 39.2648 30.6079C39.7122 30.6079 40.1526 30.6299 40.5884 30.6033ZM41.3341 27.7247C41.6092 27.7917 41.8035 27.9385 41.8485 28.2287C41.8936 28.5119 41.7514 28.7547 41.4694 28.9015C41.0601 29.1177 39.9919 29.2461 39.4659 29.1362C39.5746 28.238 40.5249 27.5281 41.3341 27.7247Z" fill="#242424"/>
<path d="M29.0183 28.8318C28.964 28.0005 28.6345 27.2988 27.9558 26.7948C27.2425 26.2653 26.431 26.1566 25.5616 26.2526C22.6575 26.5751 21.4714 29.6456 22.0887 31.6121C22.4656 32.8098 23.4887 33.4734 25.2853 33.471C26.5223 33.4352 27.7454 32.7346 28.5131 31.2976C28.9223 30.5312 29.0692 29.6976 29.0183 28.8318ZM26.1489 31.4237C25.9246 31.7092 25.6298 31.9046 25.2576 31.9381C24.5905 32.0005 24.0818 31.5369 24.0275 30.8294C24.0194 30.7254 24.0263 30.6179 24.0263 30.5161C24.0483 29.737 24.2379 29.0075 24.7084 28.3728C24.9188 28.0896 25.1813 27.8687 25.5315 27.7901C26.2518 27.6237 26.8414 28.0433 26.9061 28.8225C26.9871 29.7728 26.7524 30.6595 26.1489 31.4237Z" fill="#242424"/>
</g>
<defs>
<clipPath id="clip0_1_397">
<rect width="56" height="55.9965" fill="white"/>
</clipPath>
</defs>
</svg>
