<svg width="56" height="56" viewBox="0 0 56 56" fill="none" xmlns="http://www.w3.org/2000/svg">
<g clip-path="url(#clip0_1_425)">
<path d="M10.0369 22.8818C9.85358 22.514 9.56363 22.2108 9.20369 21.983C8.8282 21.7531 8.38495 21.592 7.87837 21.4964C7.36291 21.4031 6.76746 21.3609 6.07758 21.3542L2.8926 21.3565C2.56154 21.3609 2.23716 21.6186 2.15939 21.9386L0.0164432 31.2725C-0.0613207 31.588 0.14642 31.8524 0.477472 31.8524H2.00276C2.33381 31.8524 2.66153 31.5957 2.73485 31.2725L3.25809 29.0062C3.32807 28.6907 3.65468 28.4274 3.98907 28.4274H4.42566C6.29088 28.4252 7.73506 28.0442 8.77266 27.281C9.8158 26.5167 10.3302 25.5068 10.3302 24.256C10.329 23.7083 10.2391 23.2484 10.0369 22.8818ZM6.74746 25.9312C6.28643 26.2689 5.64544 26.4378 4.81892 26.4378H4.44565C4.11349 26.4378 3.91019 26.1756 3.9824 25.8557L4.44121 23.8738C4.50564 23.5561 4.84003 23.2928 5.16775 23.295L5.66766 23.2917C6.25089 23.2917 6.69636 23.3928 6.99409 23.5883C7.28848 23.7816 7.43623 24.0893 7.43401 24.497C7.44289 25.1169 7.20627 25.5935 6.74746 25.9312Z" fill="#242424"/>
<path d="M53.5312 22.0974L53.4357 22.1262L53.3079 22.144L53.1513 22.1196L53.0713 22.0418L53.0346 21.9196L53.0324 21.7363V21.0575H53.5423V20.8476H53.0324V20.4243H52.7802V20.8476H52.6091V21.0575H52.7802V21.8474L52.898 22.2384L53.2446 22.3629L53.3901 22.3506L53.5445 22.3206V22.0974H53.5312Z" fill="#242424"/>
<path d="M55.8926 20.9302L55.5282 20.7803L55.2593 20.8347L54.9861 21.0191L54.8272 20.8425L54.5695 20.7814L54.3217 20.8358L54.0873 20.9869V20.8225H53.8396V22.3056H54.0862V21.198L54.294 21.0691L54.5006 21.018L54.6694 21.048L54.7528 21.1335L54.7894 21.2757L54.8016 21.459V22.3067H55.0494V21.3579L55.0449 21.2791L55.0405 21.2069L55.2516 21.0724L55.4604 21.0202L55.6237 21.0502L55.7126 21.1358L55.7437 21.2791L55.7604 21.4602V22.3078H56.0092V21.3446L55.8926 20.9302Z" fill="#242424"/>
<path d="M17.3966 24.2195C16.8212 23.8951 15.9124 23.7329 14.6704 23.7329C14.0561 23.7329 13.444 23.7807 12.8252 23.8762C12.3686 23.9462 12.3242 23.9595 12.0431 24.0206C11.4632 24.1473 11.3721 24.7261 11.3721 24.7261L11.1855 25.4937C11.08 25.9836 11.3621 25.9647 11.4799 25.9236C11.7332 25.8481 11.8743 25.7703 12.392 25.6548C12.8863 25.5426 13.4073 25.4582 13.8206 25.4637C14.4305 25.4637 14.8971 25.5281 15.2081 25.6592C15.5147 25.7925 15.668 26.0214 15.668 26.3524L15.6414 26.568L15.4214 26.7035C14.556 26.7579 13.9306 26.8379 13.1718 26.9479C12.4297 27.0512 11.7787 27.2323 11.2377 27.48C10.6567 27.7355 10.2257 28.0788 9.92463 28.5154C9.63357 28.9542 9.48804 29.4863 9.48804 30.1107C9.48804 30.6983 9.69911 31.1838 10.109 31.5593C10.5212 31.9281 11.0655 32.1081 11.7165 32.1081C12.1287 32.1059 12.4475 32.0736 12.6741 32.0192L13.4129 31.7648L14.0383 31.4182L14.6138 31.0383L14.6216 31.0494L14.5638 31.2938L14.5605 31.3038V31.306C14.4983 31.6037 14.6782 31.8481 14.9682 31.877L14.9737 31.8837H15.0004H16.1702H16.3901L16.4101 31.8748C16.7145 31.8392 17 31.5948 17.0667 31.3038L18.1787 26.4902L18.2365 26.098L18.2631 25.7303C18.2676 25.0482 17.9732 24.5428 17.3966 24.2195ZM14.9371 29.6319L14.6993 29.9451L14.0994 30.2551C13.8173 30.3695 13.5495 30.4273 13.3018 30.4273C12.9263 30.4273 12.6319 30.3728 12.4331 30.2617L12.1387 29.6896C12.1387 29.3797 12.2098 29.1342 12.362 28.9453L13.0085 28.5054C13.2851 28.4121 13.6229 28.3332 14.0139 28.2788C14.3627 28.2354 15.0515 28.1566 15.1415 28.1543L15.247 28.3399C15.2259 28.4454 15.0304 29.263 14.9371 29.6319Z" fill="#242424"/>
<path d="M45.0959 24.2206C44.5171 23.8962 43.6095 23.7329 42.3709 23.7329C41.7565 23.7329 41.1433 23.7807 40.5268 23.8796C40.0691 23.9462 40.0235 23.9607 39.7413 24.0206C39.1626 24.1462 39.0726 24.7272 39.0726 24.7272L38.886 25.4937C38.7815 25.9836 39.057 25.9614 39.1859 25.9237C39.4403 25.8481 39.5769 25.7737 40.0902 25.6537C40.5823 25.5426 41.1078 25.4604 41.5221 25.4626C42.1298 25.4626 42.5964 25.5282 42.9063 25.6593C43.2152 25.7926 43.3662 26.0236 43.3662 26.3514L43.3429 26.5658L43.1252 26.7046C42.2509 26.7569 41.6243 26.8368 40.8734 26.9468C40.1335 27.0501 39.4803 27.2301 38.9382 27.479C38.3594 27.7356 37.9228 28.0789 37.6251 28.5166C37.3307 28.9554 37.1874 29.4864 37.1874 30.1052C37.1874 30.6973 37.3962 31.1828 37.8117 31.5561C38.2261 31.9238 38.7649 32.1082 39.4159 32.1082C39.8258 32.1037 40.1446 32.0771 40.3723 32.0182L41.1089 31.7671L41.7399 31.4205L42.3109 31.0361L42.3209 31.0484L42.2687 31.295L42.2631 31.2994L42.2653 31.3039C42.1965 31.6016 42.3775 31.8482 42.6708 31.8749L42.673 31.8804H42.6997C42.8919 31.8804 43.5562 31.8804 43.8728 31.8804H44.0883L44.1117 31.8727C44.4127 31.836 44.6971 31.5916 44.7604 31.2972L45.8758 26.4902L45.9346 26.0959L45.9669 25.727C45.968 25.0471 45.6769 24.5439 45.0959 24.2206ZM42.6419 29.633L42.3942 29.9497L41.7999 30.2574C41.5177 30.3707 41.2488 30.4296 41.0056 30.4296C40.6179 30.4296 40.3312 30.374 40.1379 30.2629L39.8402 29.693C39.8402 29.382 39.9124 29.1387 40.058 28.9465C40.2057 28.7654 40.4312 28.6165 40.7112 28.5077C40.9845 28.4144 41.3222 28.3388 41.7154 28.2822C42.062 28.2388 42.7486 28.1577 42.8374 28.1566L42.9452 28.3421C42.9297 28.4477 42.733 29.262 42.6419 29.633Z" fill="#242424"/>
<path d="M37.7369 22.9102C37.5458 22.5403 37.2592 22.2414 36.897 22.0082C36.526 21.7771 36.0861 21.6149 35.5717 21.5216C35.0662 21.4316 34.463 21.3827 33.7776 21.3816L30.5881 21.3838C30.2559 21.3894 29.9371 21.6471 29.8605 21.9637L27.7153 31.3021C27.6375 31.6188 27.8508 31.8809 28.1752 31.8809L29.7027 31.8787C30.0271 31.8809 30.3593 31.621 30.4359 31.301L30.9525 29.0336C31.028 28.7181 31.3558 28.4526 31.6857 28.4548H32.1223C33.9898 28.4548 35.4373 28.0705 36.4793 27.3095C37.5092 26.5396 38.0302 25.532 38.0302 24.28C38.0246 23.7345 37.9302 23.2735 37.7369 22.9102ZM34.4475 25.9642C33.9875 26.2952 33.3454 26.4641 32.5233 26.4641H32.1434C31.8157 26.4674 31.6035 26.2008 31.6768 25.8831L32.139 23.9045C32.2067 23.5879 32.5378 23.3224 32.8677 23.3257L33.3621 23.3224C33.9487 23.3257 34.3886 23.4224 34.6885 23.6179C34.9874 23.8134 35.1285 24.12 35.1318 24.5266C35.1351 25.1465 34.9052 25.6242 34.4475 25.9642Z" fill="#242424"/>
<path d="M50.8173 22.0369C50.8872 21.7181 50.6873 21.4592 50.3596 21.4637H48.9932C48.7132 21.4637 48.4611 21.6714 48.3378 21.9269L48.2622 22.0447L48.1934 22.3469L46.2837 31.0276L46.2215 31.2942L46.2238 31.3009C46.1604 31.5864 46.336 31.8019 46.607 31.843L46.6303 31.8752H48.0489C48.3267 31.8752 48.5877 31.6641 48.7066 31.4042L48.7799 31.2931L50.8217 22.038L50.8173 22.0369Z" fill="#242424"/>
<path d="M27.7483 23.8424C27.3873 23.8469 25.9198 23.8424 25.9198 23.8424C25.5909 23.8424 25.1688 24.1079 24.9599 24.4245C24.9599 24.4245 22.7759 28.1728 22.5637 28.5494L22.3104 28.5461L21.6305 24.4501C21.555 24.1279 21.2183 23.8524 20.7995 23.8524L19.4331 23.8546C19.1043 23.8546 18.9021 24.1168 18.9765 24.4368C18.9765 24.4368 20.0141 30.3413 20.2219 31.7311C20.3185 32.4977 20.2096 32.6343 20.2096 32.6343L18.8588 34.9872C18.6588 35.3072 18.7665 35.5683 19.0943 35.5683L20.674 35.566C21.0028 35.566 21.435 35.3072 21.6305 34.9861L27.7072 24.7078C27.7072 24.7089 28.2916 23.8302 27.7483 23.8424Z" fill="#242424"/>
</g>
<defs>
<clipPath id="clip0_1_425">
<rect width="56" height="55.9965" fill="white"/>
</clipPath>
</defs>
</svg>
